<svg width="20" height="20" viewBox="0 0 20 20" fill="none" xmlns="http://www.w3.org/2000/svg">
<path d="M2.49991 6.87505C2.49982 6.14989 2.67999 5.43608 3.0242 4.79782C3.36841 4.15957 3.86588 3.61688 4.47185 3.21857C5.07783 2.82026 5.77331 2.57882 6.49574 2.51598C7.21817 2.45313 7.94489 2.57084 8.61055 2.85852C9.2762 3.1462 9.85991 3.59483 10.3092 4.16406C10.7584 4.73329 11.0591 5.40527 11.1843 6.11955C11.3094 6.83383 11.255 7.56801 11.026 8.25607C10.7971 8.94412 10.4006 9.56446 9.87241 10.0613C10.8684 10.5446 11.7332 11.261 12.3934 12.1497C13.0536 13.0384 13.4898 14.0732 13.6649 15.1663C13.6842 15.2879 13.6793 15.4122 13.6506 15.5319C13.6219 15.6517 13.5698 15.7646 13.4975 15.8643C13.4251 15.9639 13.3338 16.0483 13.2288 16.1127C13.1238 16.1771 13.0072 16.2201 12.8855 16.2394C12.7639 16.2587 12.6397 16.2539 12.5199 16.2251C12.4001 16.1964 12.2872 16.1444 12.1876 16.072C12.0879 15.9996 12.0035 15.9083 11.9391 15.8033C11.8748 15.6983 11.8317 15.5817 11.8124 15.4601C11.6249 14.2854 11.0248 13.2161 10.1199 12.4442C9.21492 11.6722 8.0644 11.2481 6.87491 11.2481C5.68543 11.2481 4.53491 11.6722 3.62995 12.4442C2.725 13.2161 2.1249 14.2854 1.93741 15.4601C1.91804 15.5817 1.8749 15.6983 1.81046 15.8033C1.74602 15.9082 1.66153 15.9995 1.56182 16.0718C1.46212 16.1441 1.34914 16.1961 1.22935 16.2247C1.10956 16.2534 0.9853 16.2582 0.863663 16.2388C0.742026 16.2194 0.625395 16.1763 0.52043 16.1118C0.415465 16.0474 0.324221 15.9629 0.251907 15.8632C0.179593 15.7635 0.127627 15.6505 0.0989737 15.5307C0.0703208 15.4109 0.065543 15.2867 0.0849129 15.1651C0.260331 14.0723 0.696632 13.038 1.35683 12.1498C2.01702 11.2615 2.88165 10.5455 3.87741 10.0626C3.442 9.65371 3.0951 9.15989 2.85817 8.61163C2.62123 8.06337 2.4993 7.47232 2.49991 6.87505ZM13.7499 5.00005C14.4762 5.00056 15.1867 5.21188 15.7952 5.60836C16.4037 6.00484 16.884 6.56944 17.1778 7.23361C17.4717 7.89778 17.5664 8.63297 17.4505 9.34993C17.3346 10.0669 17.013 10.7348 16.5249 11.2726C17.2858 11.6503 17.9618 12.1789 18.5119 12.8261C19.0621 13.4734 19.4748 14.2258 19.7249 15.0376C19.7745 15.1951 19.7814 15.363 19.7451 15.5242C19.7088 15.6853 19.6305 15.834 19.5182 15.9551C19.4058 16.0762 19.2634 16.1655 19.1054 16.2137C18.9475 16.262 18.7795 16.2677 18.6187 16.2301C18.4579 16.1926 18.3099 16.1135 18.1895 16.0007C18.069 15.888 17.9803 15.7455 17.9324 15.5876C17.7084 14.8628 17.3001 14.2086 16.7476 13.6889C16.195 13.1692 15.517 12.8018 14.7799 12.6226C14.5752 12.5731 14.3931 12.4562 14.2629 12.2907C14.1328 12.1252 14.0621 11.9206 14.0624 11.7101V11.2701C14.0623 11.0955 14.1109 10.9244 14.2028 10.776C14.2947 10.6276 14.4261 10.5078 14.5824 10.4301C14.9614 10.2422 15.2657 9.93183 15.446 9.54924C15.6262 9.16664 15.6719 8.73433 15.5754 8.32253C15.479 7.91074 15.2462 7.54364 14.9148 7.28086C14.5834 7.01809 14.1729 6.87507 13.7499 6.87505C13.5013 6.87505 13.2628 6.77628 13.087 6.60046C12.9112 6.42465 12.8124 6.18619 12.8124 5.93755C12.8124 5.68891 12.9112 5.45045 13.087 5.27464C13.2628 5.09882 13.5013 5.00005 13.7499 5.00005ZM6.87491 4.37505C6.54199 4.36752 6.21092 4.42658 5.90113 4.54877C5.59135 4.67095 5.3091 4.85379 5.07095 5.08656C4.8328 5.31932 4.64355 5.59732 4.51432 5.90423C4.38509 6.21114 4.31848 6.54078 4.31839 6.87379C4.31831 7.2068 4.38476 7.53647 4.51384 7.84344C4.64291 8.15042 4.83202 8.42851 5.07005 8.66139C5.30809 8.89428 5.59025 9.07726 5.89997 9.1996C6.20969 9.32194 6.54074 9.38116 6.87366 9.3738C7.52686 9.35936 8.14846 9.08977 8.60538 8.62275C9.0623 8.15573 9.31823 7.5284 9.31839 6.87504C9.31856 6.22168 9.06294 5.59421 8.60625 5.12697C8.14956 4.65972 7.52811 4.38982 6.87491 4.37505Z" fill="#636C76"/>
</svg>
