<svg xmlns="http://www.w3.org/2000/svg" xmlns:xlink="http://www.w3.org/1999/xlink" viewBox="0,0,256,256" width="30px" height="30px"><g fill="#636c76" fill-rule="nonzero" stroke="none" stroke-width="1" stroke-linecap="butt" stroke-linejoin="miter" stroke-miterlimit="10" stroke-dasharray="" stroke-dashoffset="0" font-family="none" font-weight="none" font-size="none" text-anchor="none" style="mix-blend-mode: normal"><g transform="scale(8.53333,8.53333)"><path d="M15.00977,2c-0.20885,-0.00192 -0.41307,0.0616 -0.58399,0.18164l-12,8.39844c-0.45251,0.31713 -0.56225,0.94105 -0.24512,1.39355c0.31713,0.45251 0.94105,0.56225 1.39355,0.24512l0.42578,-0.29883v11.08008c0,1.09306 0.90694,2 2,2h2v-2h-2v-12.47852l9,-6.30078l9,6.30078v12.47852h-2v2h2c1.09306,0 2,-0.90694 2,-2v-11.08008l0.42578,0.29883c0.45251,0.31713 1.07642,0.20739 1.39355,-0.24512c0.31713,-0.45251 0.20739,-1.07642 -0.24512,-1.39355l-12,-8.39844c-0.16546,-0.11621 -0.36227,-0.17955 -0.56445,-0.18164zM11,13c-0.552,0 -1,0.448 -1,1v13c0,0.55228 0.44772,1 1,1c0.22827,-0.00049 0.44951,-0.07905 0.62695,-0.22266l0.01563,-0.01367l3.35742,-2.76367l3.33203,2.74414c0.01338,0.01143 0.02705,0.0225 0.04102,0.0332c0.17745,0.1436 0.39868,0.22217 0.62695,0.22266c0.55228,0 1,-0.44772 1,-1v-13c0,-0.552 -0.448,-1 -1,-1z"></path></g></g></svg>