<svg xmlns="http://www.w3.org/2000/svg" xmlns:xlink="http://www.w3.org/1999/xlink" viewBox="0,0,256,256" width="50px" height="50px"><g fill="#636c76" fill-rule="nonzero" stroke="none" stroke-width="1" stroke-linecap="butt" stroke-linejoin="miter" stroke-miterlimit="10" stroke-dasharray="" stroke-dashoffset="0" font-family="none" font-weight="none" font-size="none" text-anchor="none" style="mix-blend-mode: normal"><g transform="scale(5.12,5.12)"><path d="M25,1c-0.2175,0 -0.43414,0.07094 -0.61914,0.21094l-23,18c-0.43,0.34 -0.50992,0.9682 -0.16992,1.4082c0.34,0.43 0.9682,0.50992 1.4082,0.16992l1.38086,-1.08984v26.30078c0,0.55 0.45,1 1,1h9v-26h22v26h9c0.55,0 1,-0.45 1,-1v-26.30078l1.38086,1.08984c0.19,0.14 0.39914,0.21094 0.61914,0.21094c0.3,0 0.58906,-0.13086 0.78906,-0.38086c0.34,-0.44 0.26008,-1.0682 -0.16992,-1.4082l-23,-18c-0.185,-0.14 -0.40164,-0.21094 -0.61914,-0.21094zM16,23v24.90039l9,-6.90039l9,6.90039v-24.90039z"></path></g></g></svg>