<svg width="20" height="20" viewBox="0 0 20 20" fill="none" xmlns="http://www.w3.org/2000/svg">
<path d="M2.97844 0.980362C2.58074 0.980854 2.19221 1.09989 1.86249 1.32227C1.53277 1.54464 1.27683 1.86026 1.12736 2.22881C0.977888 2.59735 0.941673 3.00208 1.02334 3.39131C1.10501 3.78053 1.30086 4.13658 1.58586 4.41396L7.1718 9.99989L1.58586 15.5858C1.39391 15.7701 1.24067 15.9909 1.1351 16.2351C1.02953 16.4794 0.973758 16.7422 0.971051 17.0083C0.968344 17.2744 1.01876 17.5383 1.11933 17.7847C1.21991 18.0311 1.36864 18.2549 1.55679 18.443C1.74495 18.6312 1.96876 18.7799 2.21511 18.8805C2.46147 18.9811 2.72541 19.0315 2.9915 19.0288C3.25758 19.0261 3.52044 18.9703 3.7647 18.8647C4.00896 18.7591 4.22969 18.6059 4.41398 18.414L9.99992 12.828L15.5859 18.414C15.7701 18.6059 15.9909 18.7592 16.2351 18.8647C16.4794 18.9703 16.7423 19.0261 17.0084 19.0288C17.2744 19.0315 17.5384 18.9811 17.7847 18.8805C18.0311 18.7799 18.2549 18.6312 18.4431 18.443C18.6312 18.2549 18.7799 18.0311 18.8805 17.7847C18.9811 17.5384 19.0315 17.2744 19.0288 17.0083C19.0261 16.7422 18.9703 16.4794 18.8648 16.2351C18.7592 15.9909 18.6059 15.7701 18.414 15.5858L12.828 9.99989L18.414 4.41396C18.703 4.13303 18.9004 3.77135 18.9803 3.37631C19.0602 2.98127 19.0189 2.5713 18.8619 2.20013C18.7048 1.82896 18.4392 1.5139 18.1 1.29624C17.7608 1.07858 17.3637 0.968481 16.9609 0.980362C16.4413 0.995844 15.9481 1.213 15.5859 1.58583L9.99992 7.17177L4.41398 1.58583C4.22738 1.39401 4.00417 1.24158 3.75759 1.13758C3.511 1.03358 3.24606 0.980116 2.97844 0.980362Z" fill="#9F9F9F"/>
</svg>
