<svg width="20" height="20" viewBox="0 0 20 20" fill="none" xmlns="http://www.w3.org/2000/svg">
<path d="M2.1875 1.25H12.8125C14.02 1.25 15 2.23 15 3.4375V10.3125C15 10.8927 14.7695 11.4491 14.3593 11.8593C13.9491 12.2695 13.3927 12.5 12.8125 12.5H8.82625L5.60875 15.7162C5.35381 15.9702 5.0294 16.143 4.6764 16.2129C4.3234 16.2828 3.95761 16.2466 3.62514 16.1089C3.29268 15.9712 3.00841 15.7382 2.80818 15.4392C2.60795 15.1402 2.50072 14.7886 2.5 14.4288V12.5H2.1875C1.60734 12.5 1.05094 12.2695 0.640704 11.8593C0.230468 11.4491 0 10.8927 0 10.3125L0 3.4375C0 2.23 0.98 1.25 2.1875 1.25ZM1.875 3.4375V10.3125C1.875 10.485 2.015 10.625 2.1875 10.625H3.4375C3.68614 10.625 3.9246 10.7238 4.10041 10.8996C4.27623 11.0754 4.375 11.3139 4.375 11.5625V14.3L7.775 10.9C7.86193 10.8129 7.96519 10.7437 8.07887 10.6965C8.19255 10.6493 8.31442 10.625 8.4375 10.625H12.8125C12.8954 10.625 12.9749 10.5921 13.0335 10.5335C13.0921 10.4749 13.125 10.3954 13.125 10.3125V3.4375C13.125 3.35462 13.0921 3.27513 13.0335 3.21653C12.9749 3.15792 12.8954 3.125 12.8125 3.125H2.1875C2.10462 3.125 2.02513 3.15792 1.96653 3.21653C1.90792 3.27513 1.875 3.35462 1.875 3.4375ZM18.125 5.9375C18.125 5.85462 18.0921 5.77513 18.0335 5.71653C17.9749 5.65792 17.8954 5.625 17.8125 5.625H17.1875C16.9389 5.625 16.7004 5.52623 16.5246 5.35041C16.3488 5.1746 16.25 4.93614 16.25 4.6875C16.25 4.43886 16.3488 4.2004 16.5246 4.02459C16.7004 3.84877 16.9389 3.75 17.1875 3.75H17.8125C19.02 3.75 20 4.73 20 5.9375V12.8125C20 13.3927 19.7695 13.9491 19.3593 14.3593C18.9491 14.7695 18.3927 15 17.8125 15H17.5V16.9288C17.4993 17.2886 17.392 17.6402 17.1918 17.9392C16.9916 18.2382 16.7073 18.4712 16.3749 18.6089C16.0424 18.7466 15.6766 18.7828 15.3236 18.7129C14.9706 18.643 14.6462 18.4702 14.3912 18.2162L11.525 15.35C11.4016 15.2354 11.3114 15.0897 11.2639 14.9281C11.2163 14.7665 11.2133 14.5951 11.255 14.432C11.2967 14.2688 11.3817 14.12 11.5009 14.001C11.6201 13.8821 11.7692 13.7975 11.9325 13.7563C12.0955 13.7145 12.2667 13.7174 12.4281 13.7647C12.5896 13.812 12.7353 13.9019 12.85 14.025L15.625 16.8V14.0625C15.625 13.8139 15.7238 13.5754 15.8996 13.3996C16.0754 13.2238 16.3139 13.125 16.5625 13.125H17.8125C17.8954 13.125 17.9749 13.0921 18.0335 13.0335C18.0921 12.9749 18.125 12.8954 18.125 12.8125V5.9375Z" fill="#636C76"/>
</svg>
