<svg xmlns="http://www.w3.org/2000/svg" xmlns:xlink="http://www.w3.org/1999/xlink" viewBox="0,0,256,256" width="30px" height="30px"><g fill="#636c76" fill-rule="nonzero" stroke="none" stroke-width="1" stroke-linecap="butt" stroke-linejoin="miter" stroke-miterlimit="10" stroke-dasharray="" stroke-dashoffset="0" font-family="none" font-weight="none" font-size="none" text-anchor="none" style="mix-blend-mode: normal"><g transform="scale(8.53333,8.53333)"><path d="M15.08984,3c-4.958,0 -7.76961,2.77783 -7.84961,6.79883v0.20117h4.37695v-0.20117c0.096,-1.776 1.32464,-2.92187 3.18164,-2.92187c1.841,0 3.06836,1.06441 3.06836,2.56641c0,1.502 -0.62989,2.27748 -2.71289,3.52148c-2.229,1.308 -3.1182,2.7617 -2.9082,5.3457l0.02539,0.68945h4.28711v-0.65625c0,-1.55 0.59809,-2.34294 2.74609,-3.58594c2.277,-1.341 3.45508,-3.03598 3.45508,-5.45898c0,-3.731 -3.05092,-6.29883 -7.66992,-6.29883zM14.50781,22c-1.643,0 -2.66797,0.95381 -2.66797,2.50781c0,1.54 1.02597,2.49219 2.66797,2.49219c1.642,0 2.6543,-0.95219 2.6543,-2.49219c0,-1.554 -1.0113,-2.50781 -2.6543,-2.50781z"></path></g></g></svg>