<svg width="162" height="162" viewBox="0 0 162 162" fill="none" xmlns="http://www.w3.org/2000/svg">
<path d="M148.767 161.25L92.5917 105.075C88.1333 108.642 83.0062 111.465 77.2104 113.546C71.4146 115.626 65.2472 116.667 58.7083 116.667C42.5097 116.667 28.8003 111.057 17.5802 99.8365C6.36007 88.6163 0.75 74.9069 0.75 58.7083C0.75 42.5097 6.36007 28.8003 17.5802 17.5802C28.8003 6.36007 42.5097 0.75 58.7083 0.75C74.9069 0.75 88.6163 6.36007 99.8365 17.5802C111.057 28.8003 116.667 42.5097 116.667 58.7083C116.667 65.2472 115.626 71.4146 113.546 77.2104C111.465 83.0062 108.642 88.1333 105.075 92.5917L161.25 148.767L148.767 161.25ZM58.7083 98.8333C69.8542 98.8333 79.3281 94.9323 87.1302 87.1302C94.9323 79.3281 98.8333 69.8542 98.8333 58.7083C98.8333 47.5625 94.9323 38.0885 87.1302 30.2865C79.3281 22.4844 69.8542 18.5833 58.7083 18.5833C47.5625 18.5833 38.0885 22.4844 30.2865 30.2865C22.4844 38.0885 18.5833 47.5625 18.5833 58.7083C18.5833 69.8542 22.4844 79.3281 30.2865 87.1302C38.0885 94.9323 47.5625 98.8333 58.7083 98.8333Z" fill="#636C76"/>
</svg>
