<svg xmlns="http://www.w3.org/2000/svg" xmlns:xlink="http://www.w3.org/1999/xlink" viewBox="0,0,256,256" width="64px" height="64px"><g fill="#636c76" fill-rule="nonzero" stroke="none" stroke-width="1" stroke-linecap="butt" stroke-linejoin="none" stroke-miterlimit="10" stroke-dasharray="" stroke-dashoffset="0" font-family="none" font-weight="none" font-size="none" text-anchor="none" style="mix-blend-mode: normal"><path transform="scale(2,2)" d="M86,6c12.7,0 23,10.3 23,23c0,1.7 -1.3,3 -3,3h-10c-7.2,0 -13,-5.8 -13,-13v-7h-51c-3.9,0 -7,3.1 -7,7v90c0,3.9 3.1,7 7,7h58c1.7,0 3,1.3 3,3c0,1.7 -1.3,3 -3,3h-58c-7.2,0 -13,-5.8 -13,-13v-90c0,-7.2 5.8,-13 13,-13zM109,42v18c0,1.7 -1.3,3 -3,3c-1.7,0 -3,-1.3 -3,-3v-18c0,-1.7 1.3,-3 3,-3c1.7,0 3,1.3 3,3zM108.09961,76.90039l15,15c1.2,1.2 1.2,2.99922 0,4.19922l-15,15c-1.1,1.2 -2.99922,1.2 -4.19922,0c-0.6,-0.6 -0.90039,-1.39961 -0.90039,-2.09961c0,-0.7 0.30039,-1.49961 0.90039,-2.09961l9.90039,-9.90039h-32.80078c-1.7,0 -3,-1.3 -3,-3c0,-1.7 1.3,-3 3,-3h32.80078l-9.90039,-9.90039c-1.2,-1.1 -1.2,-2.99922 0,-4.19922c0.55,-0.6 1.3,-0.90039 2.0625,-0.90039c0.7625,0 1.53672,0.30039 2.13672,0.90039z" id="strokeMainSVG" stroke="#636c76" stroke-linejoin="round"></path><g transform="scale(2,2)" stroke="none" stroke-linejoin="miter"><path d="M32,6c-7.2,0 -13,5.8 -13,13v90c0,7.2 5.8,13 13,13h58c1.7,0 3,-1.3 3,-3c0,-1.7 -1.3,-3 -3,-3h-58c-3.9,0 -7,-3.1 -7,-7v-90c0,-3.9 3.1,-7 7,-7h51v7c0,7.2 5.8,13 13,13h10c1.7,0 3,-1.3 3,-3c0,-12.7 -10.3,-23 -23,-23zM89,12.30078c7,1.2 12.49922,6.79922 13.69922,13.69922h-6.69922c-3.9,0 -7,-3.1 -7,-7zM106,39c-1.7,0 -3,1.3 -3,3v18c0,1.7 1.3,3 3,3c1.7,0 3,-1.3 3,-3v-18c0,-1.7 -1.3,-3 -3,-3zM105.96289,76c-0.7625,0 -1.5125,0.30039 -2.0625,0.90039c-1.2,1.2 -1.2,3.09922 0,4.19922l9.90039,9.90039h-32.80078c-1.7,0 -3,1.3 -3,3c0,1.7 1.3,3 3,3h32.80078l-9.90039,9.90039c-0.6,0.6 -0.90039,1.39961 -0.90039,2.09961c0,0.7 0.30039,1.49961 0.90039,2.09961c1.2,1.2 3.09922,1.2 4.19922,0l15,-15c1.2,-1.2 1.2,-2.99922 0,-4.19922l-15,-15c-0.6,-0.6 -1.37422,-0.90039 -2.13672,-0.90039z"></path></g></g></svg>