<svg width="19" height="19" viewBox="0 0 19 19" fill="none" xmlns="http://www.w3.org/2000/svg">
<path id="Vector" d="M14.2292 12.2993C13.8939 12.1027 13.4816 12.1068 13.1479 12.3051L11.4577 13.3121C11.0794 13.5376 10.6069 13.5112 10.2599 13.2402C9.6602 12.7718 8.69451 11.9837 7.85438 11.1436C7.01426 10.3035 6.22618 9.3378 5.75779 8.73806C5.48684 8.39111 5.4604 7.91859 5.68592 7.54025L6.69291 5.85008C6.892 5.51635 6.89365 5.10083 6.69704 4.76544L4.21715 0.529297C3.97676 0.119561 3.49929 -0.0820025 3.03751 0.0311705C2.58894 0.140213 2.00656 0.406211 1.39608 1.01751C-0.515468 2.92906 -1.53072 6.15325 5.65783 13.3418C12.8464 20.5304 16.0698 19.5159 17.9821 17.6036C18.5943 16.9914 18.8594 16.4082 18.9693 15.9588C19.0808 15.4979 18.8826 15.0237 18.4737 14.7841C17.4526 14.1869 15.2503 12.8974 14.2292 12.2993Z" fill="black" fill-opacity="0.5"/>
</svg>
