<svg width="20" height="20" viewBox="0 0 20 20" fill="none" xmlns="http://www.w3.org/2000/svg">
<path d="M13.2013 10.0913C14.432 10.673 15.4813 11.5784 16.237 12.7106C16.9927 13.8428 17.4263 15.1592 17.4913 16.5188C17.4999 16.6434 17.4835 16.7684 17.4431 16.8866C17.4027 17.0047 17.3391 17.1136 17.2561 17.2068C17.1731 17.3001 17.0722 17.3758 16.9595 17.4295C16.8468 17.4832 16.7245 17.5139 16.5998 17.5197C16.4751 17.5256 16.3505 17.5064 16.2332 17.4634C16.116 17.4204 16.0086 17.3545 15.9172 17.2694C15.8258 17.1843 15.7523 17.0818 15.7011 16.968C15.6499 16.8541 15.6219 16.7312 15.6188 16.6063C15.5507 15.162 14.929 13.7994 13.8827 12.8013C12.8364 11.8033 11.446 11.2464 10.0001 11.2464C8.55413 11.2464 7.16371 11.8033 6.11746 12.8013C5.0712 13.7994 4.44947 15.162 4.38133 16.6063C4.36449 16.8508 4.25259 17.079 4.0696 17.242C3.88661 17.405 3.64707 17.4898 3.40228 17.4784C3.15749 17.467 2.92691 17.3601 2.75992 17.1808C2.59293 17.0014 2.5028 16.7638 2.50883 16.5188C2.57366 15.1593 3.00699 13.8429 3.76246 12.7107C4.51792 11.5785 5.56706 10.6731 6.79758 10.0913C6.00884 9.43345 5.44191 8.54857 5.17389 7.55706C4.90588 6.56555 4.94979 5.51555 5.29966 4.54988C5.64953 3.58422 6.28837 2.74976 7.12928 2.16003C7.9702 1.57029 8.97236 1.25391 9.99945 1.25391C11.0265 1.25391 12.0287 1.57029 12.8696 2.16003C13.7105 2.74976 14.3494 3.58422 14.6992 4.54988C15.0491 5.51555 15.093 6.56555 14.825 7.55706C14.557 8.54857 13.9901 9.43345 13.2013 10.0913ZM13.1251 6.25009C13.1251 5.42129 12.7958 4.62643 12.2098 4.04038C11.6237 3.45433 10.8289 3.12509 10.0001 3.12509C9.17128 3.12509 8.37642 3.45433 7.79037 4.04038C7.20432 4.62643 6.87508 5.42129 6.87508 6.25009C6.87508 7.07889 7.20432 7.87375 7.79037 8.4598C8.37642 9.04585 9.17128 9.37509 10.0001 9.37509C10.8289 9.37509 11.6237 9.04585 12.2098 8.4598C12.7958 7.87375 13.1251 7.07889 13.1251 6.25009Z" fill="#636C76"/>
</svg>
