<svg width="20" height="20" viewBox="0 0 20 20" fill="none" xmlns="http://www.w3.org/2000/svg">
<g clip-path="url(#clip0_740_596)">
<path d="M9.87526 10.685C10.9809 11.2231 11.9217 12.0466 12.6029 13.0703C13.2841 14.0941 13.6797 15.281 13.749 16.5087C13.7561 16.6317 13.7388 16.7548 13.6983 16.8711C13.6578 16.9874 13.5947 17.0946 13.5128 17.1865C13.4308 17.2785 13.3316 17.3533 13.2207 17.4069C13.1098 17.4605 12.9895 17.4917 12.8665 17.4987C12.7436 17.5058 12.6204 17.4886 12.5041 17.4481C12.3878 17.4075 12.2807 17.3445 12.1887 17.2625C12.0968 17.1806 12.0219 17.0813 11.9683 16.9704C11.9148 16.8596 11.8836 16.7392 11.8765 16.6163C11.8071 15.3364 11.2501 14.1317 10.3199 13.2498C9.3897 12.368 8.15702 11.876 6.87526 11.875C5.59349 11.876 4.36081 12.368 3.43061 13.2498C2.5004 14.1317 1.94337 15.3364 1.87401 16.6163C1.86703 16.7392 1.8359 16.8596 1.78241 16.9705C1.72891 17.0814 1.65409 17.1807 1.56222 17.2627C1.47035 17.3447 1.36322 17.4078 1.24696 17.4484C1.1307 17.489 1.00758 17.5064 0.884631 17.4994C0.761681 17.4924 0.641309 17.4613 0.530388 17.4078C0.419466 17.3543 0.320168 17.2795 0.238162 17.1876C0.156157 17.0957 0.0930493 16.9886 0.0524438 16.8723C0.0118382 16.7561 -0.00547042 16.633 0.00150606 16.51C0.0704577 15.282 0.46596 14.0947 1.14717 13.0707C1.82837 12.0467 2.77059 11.2231 3.87651 10.685C3.23843 10.0841 2.79554 9.30542 2.60524 8.44985C2.41495 7.59428 2.48602 6.70127 2.80924 5.88657C3.13247 5.07187 3.69295 4.37303 4.41804 3.88063C5.14313 3.38824 5.9994 3.12498 6.87588 3.12498C7.75236 3.12498 8.60863 3.38824 9.33372 3.88063C10.0588 4.37303 10.6193 5.07187 10.9425 5.88657C11.2657 6.70127 11.3368 7.59428 11.1465 8.44985C10.9562 9.30542 10.5133 10.0841 9.87526 10.685ZM16.5628 0C16.8114 0 17.0499 0.098772 17.2257 0.274587C17.4015 0.450403 17.5003 0.68886 17.5003 0.9375V2.5H19.0628C19.3114 2.5 19.5499 2.59877 19.7257 2.77459C19.9015 2.9504 20.0003 3.18886 20.0003 3.4375C20.0003 3.68614 19.9015 3.9246 19.7257 4.10041C19.5499 4.27623 19.3114 4.375 19.0628 4.375H17.5003V5.9375C17.5003 6.18614 17.4015 6.4246 17.2257 6.60041C17.0499 6.77623 16.8114 6.875 16.5628 6.875C16.3141 6.875 16.0757 6.77623 15.8998 6.60041C15.724 6.4246 15.6253 6.18614 15.6253 5.9375V4.375H14.0628C13.8141 4.375 13.5757 4.27623 13.3998 4.10041C13.224 3.9246 13.1253 3.68614 13.1253 3.4375C13.1253 3.18886 13.224 2.9504 13.3998 2.77459C13.5757 2.59877 13.8141 2.5 14.0628 2.5H15.6253V0.9375C15.6253 0.68886 15.724 0.450403 15.8998 0.274587C16.0757 0.098772 16.3141 0 16.5628 0ZM6.87526 5C6.54233 4.99247 6.21126 5.05153 5.90148 5.17371C5.59169 5.2959 5.30944 5.47874 5.07129 5.7115C4.83314 5.94427 4.6439 6.22227 4.51466 6.52918C4.38543 6.83609 4.31882 7.16573 4.31874 7.49874C4.31865 7.83174 4.3851 8.16141 4.51418 8.46839C4.64326 8.77536 4.83236 9.05346 5.0704 9.28634C5.30843 9.51923 5.59059 9.70221 5.90031 9.82455C6.21004 9.94689 6.54108 10.0061 6.87401 9.99875C7.52721 9.98431 8.1488 9.71472 8.60572 9.2477C9.06264 8.78068 9.31857 8.15335 9.31874 7.49999C9.3189 6.84662 9.06328 6.21916 8.60659 5.75191C8.14991 5.28467 7.52845 5.01477 6.87526 5Z" fill="#636C76"/>
</g>
<defs>
<clipPath id="clip0_740_596">
<rect width="20" height="20" fill="white"/>
</clipPath>
</defs>
</svg>
