<svg width="16" height="16" viewBox="0 0 16 16" fill="none" xmlns="http://www.w3.org/2000/svg">
<g clip-path="url(#clip0_744_540)">
<path d="M2.38285 0.784387C2.06469 0.784781 1.75387 0.88001 1.49009 1.05791C1.22631 1.23581 1.02156 1.48831 0.901985 1.78315C0.782408 2.07798 0.753436 2.40176 0.818769 2.71315C0.884105 3.02452 1.04079 3.30936 1.26879 3.53127L5.73754 8.00001L1.26879 12.4687C1.11523 12.6162 0.992633 12.7928 0.908177 12.9882C0.823721 13.1836 0.779104 13.3939 0.776938 13.6067C0.774773 13.8196 0.815106 14.0307 0.895562 14.2279C0.976026 14.425 1.09501 14.604 1.24553 14.7545C1.39606 14.9051 1.57511 15.024 1.77219 15.1045C1.96927 15.185 2.18043 15.2253 2.3933 15.2231C2.60616 15.221 2.81645 15.1763 3.01186 15.0919C3.20727 15.0074 3.38385 14.8848 3.53128 14.7313L8.00003 10.2625L12.4688 14.7313C12.6162 14.8848 12.7928 15.0075 12.9882 15.0919C13.1836 15.1763 13.3939 15.221 13.6068 15.2231C13.8196 15.2253 14.0308 15.185 14.2279 15.1045C14.425 15.024 14.604 14.9051 14.7546 14.7545C14.9051 14.604 15.024 14.425 15.1045 14.2279C15.185 14.0308 15.2253 13.8196 15.2231 13.6067C15.221 13.3939 15.1763 13.1836 15.0919 12.9882C15.0075 12.7928 14.8848 12.6162 14.7313 12.4687L10.2625 8.00001L14.7313 3.53127C14.9625 3.30652 15.1204 3.01718 15.1843 2.70115C15.2483 2.38511 15.2152 2.05714 15.0896 1.7602C14.9639 1.46327 14.7515 1.21122 14.4801 1.03709C14.2087 0.862961 13.8911 0.774882 13.5688 0.784387C13.1531 0.796773 12.7586 0.970497 12.4688 1.26876L8.00003 5.73751L3.53128 1.26876C3.382 1.11531 3.20343 0.993361 3.00617 0.910161C2.8089 0.826962 2.59695 0.78419 2.38285 0.784387Z" fill="#9F9F9F"/>
</g>
<defs>
<clipPath id="clip0_744_540">
<rect width="16" height="16" fill="white"/>
</clipPath>
</defs>
</svg>
