<svg width="365" height="61" viewBox="0 0 365 61" fill="none" xmlns="http://www.w3.org/2000/svg">
<path d="M16.5455 47H0.0454545V0.454544H16.6818C21.3636 0.454544 25.3939 1.38636 28.7727 3.25C32.1515 5.09848 34.75 7.75757 36.5682 11.2273C38.4015 14.697 39.3182 18.8485 39.3182 23.6818C39.3182 28.5303 38.4015 32.697 36.5682 36.1818C34.75 39.6667 32.1364 42.3409 28.7273 44.2045C25.3333 46.0682 21.2727 47 16.5455 47ZM9.88636 38.5682H16.1364C19.0455 38.5682 21.4924 38.053 23.4773 37.0227C25.4773 35.9773 26.9773 34.3636 27.9773 32.1818C28.9924 29.9848 29.5 27.1515 29.5 23.6818C29.5 20.2424 28.9924 17.4318 27.9773 15.25C26.9773 13.0682 25.4848 11.4621 23.5 10.4318C21.5152 9.40151 19.0682 8.88636 16.1591 8.88636H9.88636V38.5682ZM56.3807 47.6591C54.1534 47.6591 52.1686 47.2727 50.4261 46.5C48.6837 45.7121 47.3049 44.553 46.2898 43.0227C45.2898 41.4773 44.7898 39.553 44.7898 37.25C44.7898 35.3106 45.1458 33.6818 45.858 32.3636C46.5701 31.0455 47.5398 29.9848 48.767 29.1818C49.9943 28.3788 51.3883 27.7727 52.9489 27.3636C54.5246 26.9545 56.1761 26.6667 57.9034 26.5C59.9337 26.2879 61.5701 26.0909 62.8125 25.9091C64.0549 25.7121 64.9564 25.4242 65.517 25.0455C66.0777 24.6667 66.358 24.1061 66.358 23.3636V23.2273C66.358 21.7879 65.9034 20.6742 64.9943 19.8864C64.1004 19.0985 62.8277 18.7045 61.1761 18.7045C59.4337 18.7045 58.0473 19.0909 57.017 19.8636C55.9867 20.6212 55.3049 21.5758 54.9716 22.7273L46.017 22C46.4716 19.8788 47.3655 18.0455 48.6989 16.5C50.0322 14.9394 51.7519 13.7424 53.858 12.9091C55.9792 12.0606 58.4337 11.6364 61.2216 11.6364C63.161 11.6364 65.017 11.8636 66.7898 12.3182C68.5777 12.7727 70.161 13.4773 71.5398 14.4318C72.9337 15.3864 74.0322 16.6136 74.8352 18.1136C75.6383 19.5985 76.0398 21.3788 76.0398 23.4545V47H66.858V42.1591H66.5852C66.0246 43.25 65.2746 44.2121 64.3352 45.0455C63.3958 45.8636 62.267 46.5076 60.9489 46.9773C59.6307 47.4318 58.108 47.6591 56.3807 47.6591ZM59.1534 40.9773C60.5777 40.9773 61.8352 40.697 62.9261 40.1364C64.017 39.5606 64.8731 38.7879 65.4943 37.8182C66.1155 36.8485 66.4261 35.75 66.4261 34.5227V30.8182C66.1231 31.0152 65.7064 31.197 65.1761 31.3636C64.661 31.5152 64.0777 31.6591 63.4261 31.7955C62.7746 31.9167 62.1231 32.0303 61.4716 32.1364C60.8201 32.2273 60.2292 32.3106 59.6989 32.3864C58.5625 32.553 57.5701 32.8182 56.7216 33.1818C55.8731 33.5455 55.214 34.0379 54.7443 34.6591C54.2746 35.2652 54.0398 36.0227 54.0398 36.9318C54.0398 38.25 54.517 39.2576 55.4716 39.9545C56.4413 40.6364 57.6686 40.9773 59.1534 40.9773ZM99.2784 60.8182C96.142 60.8182 93.4527 60.3864 91.2102 59.5227C88.983 58.6742 87.2102 57.5152 85.892 56.0455C84.5739 54.5758 83.7178 52.9242 83.3239 51.0909L92.2784 49.8864C92.5511 50.5833 92.983 51.2348 93.5739 51.8409C94.1648 52.447 94.9451 52.9318 95.9148 53.2955C96.8996 53.6742 98.0966 53.8636 99.5057 53.8636C101.612 53.8636 103.347 53.3485 104.71 52.3182C106.089 51.303 106.778 49.5985 106.778 47.2045V40.8182H106.369C105.945 41.7879 105.309 42.7045 104.46 43.5682C103.612 44.4318 102.521 45.1364 101.188 45.6818C99.8542 46.2273 98.2633 46.5 96.4148 46.5C93.7936 46.5 91.4072 45.8939 89.2557 44.6818C87.1193 43.4545 85.4148 41.5833 84.142 39.0682C82.8845 36.5379 82.2557 33.3409 82.2557 29.4773C82.2557 25.5227 82.8996 22.2197 84.1875 19.5682C85.4754 16.9167 87.1875 14.9318 89.3239 13.6136C91.4754 12.2955 93.8314 11.6364 96.392 11.6364C98.3466 11.6364 99.983 11.9697 101.301 12.6364C102.619 13.2879 103.68 14.1061 104.483 15.0909C105.301 16.0606 105.93 17.0152 106.369 17.9545H106.733V12.0909H116.347V47.3409C116.347 50.3106 115.619 52.7955 114.165 54.7955C112.71 56.7955 110.695 58.2955 108.119 59.2955C105.559 60.3106 102.612 60.8182 99.2784 60.8182ZM99.483 39.2273C101.044 39.2273 102.362 38.8409 103.438 38.0682C104.528 37.2803 105.362 36.1591 105.938 34.7045C106.528 33.2348 106.824 31.4773 106.824 29.4318C106.824 27.3864 106.536 25.6136 105.96 24.1136C105.384 22.5985 104.551 21.4242 103.46 20.5909C102.369 19.7576 101.044 19.3409 99.483 19.3409C97.892 19.3409 96.5511 19.7727 95.4602 20.6364C94.3693 21.4848 93.5436 22.6667 92.983 24.1818C92.4223 25.697 92.142 27.447 92.142 29.4318C92.142 31.447 92.4223 33.1894 92.983 34.6591C93.5587 36.1136 94.3845 37.2424 95.4602 38.0455C96.5511 38.8333 97.892 39.2273 99.483 39.2273ZM146.438 32.1364V12.0909H156.119V47H146.824V40.6591H146.46C145.672 42.7045 144.362 44.3485 142.528 45.5909C140.71 46.8333 138.491 47.4545 135.869 47.4545C133.536 47.4545 131.483 46.9242 129.71 45.8636C127.938 44.803 126.551 43.2955 125.551 41.3409C124.566 39.3864 124.066 37.0455 124.051 34.3182V12.0909H133.733V32.5909C133.748 34.6515 134.301 36.2803 135.392 37.4773C136.483 38.6742 137.945 39.2727 139.778 39.2727C140.945 39.2727 142.036 39.0076 143.051 38.4773C144.066 37.9318 144.884 37.1288 145.506 36.0682C146.142 35.0076 146.453 33.697 146.438 32.1364Z" fill="#0F1945"/>
<path d="M180.545 47H164.045V0.454544H180.682C185.364 0.454544 189.394 1.38636 192.773 3.25C196.152 5.09848 198.75 7.75757 200.568 11.2273C202.402 14.697 203.318 18.8485 203.318 23.6818C203.318 28.5303 202.402 32.697 200.568 36.1818C198.75 39.6667 196.136 42.3409 192.727 44.2045C189.333 46.0682 185.273 47 180.545 47ZM173.886 38.5682H180.136C183.045 38.5682 185.492 38.053 187.477 37.0227C189.477 35.9773 190.977 34.3636 191.977 32.1818C192.992 29.9848 193.5 27.1515 193.5 23.6818C193.5 20.2424 192.992 17.4318 191.977 15.25C190.977 13.0682 189.485 11.4621 187.5 10.4318C185.515 9.40151 183.068 8.88636 180.159 8.88636H173.886V38.5682ZM226.199 47.6818C222.669 47.6818 219.616 46.9318 217.04 45.4318C214.479 43.9167 212.502 41.8106 211.108 39.1136C209.714 36.4015 209.017 33.2576 209.017 29.6818C209.017 26.0758 209.714 22.9242 211.108 20.2273C212.502 17.5152 214.479 15.4091 217.04 13.9091C219.616 12.3939 222.669 11.6364 226.199 11.6364C229.729 11.6364 232.775 12.3939 235.335 13.9091C237.911 15.4091 239.896 17.5152 241.29 20.2273C242.684 22.9242 243.381 26.0758 243.381 29.6818C243.381 33.2576 242.684 36.4015 241.29 39.1136C239.896 41.8106 237.911 43.9167 235.335 45.4318C232.775 46.9318 229.729 47.6818 226.199 47.6818ZM226.244 40.1818C227.85 40.1818 229.191 39.7273 230.267 38.8182C231.343 37.8939 232.153 36.6364 232.699 35.0455C233.259 33.4545 233.54 31.6439 233.54 29.6136C233.54 27.5833 233.259 25.7727 232.699 24.1818C232.153 22.5909 231.343 21.3333 230.267 20.4091C229.191 19.4848 227.85 19.0227 226.244 19.0227C224.623 19.0227 223.259 19.4848 222.153 20.4091C221.063 21.3333 220.237 22.5909 219.676 24.1818C219.131 25.7727 218.858 27.5833 218.858 29.6136C218.858 31.6439 219.131 33.4545 219.676 35.0455C220.237 36.6364 221.063 37.8939 222.153 38.8182C223.259 39.7273 224.623 40.1818 226.244 40.1818ZM249.676 47V12.0909H259.062V18.1818H259.426C260.063 16.0152 261.131 14.3788 262.631 13.2727C264.131 12.1515 265.858 11.5909 267.812 11.5909C268.297 11.5909 268.82 11.6212 269.381 11.6818C269.941 11.7424 270.434 11.8258 270.858 11.9318V20.5227C270.403 20.3864 269.775 20.2652 268.972 20.1591C268.169 20.053 267.434 20 266.767 20C265.343 20 264.07 20.3106 262.949 20.9318C261.843 21.5379 260.964 22.3864 260.312 23.4773C259.676 24.5682 259.358 25.8258 259.358 27.25V47H249.676ZM275.864 47V12.0909H285.091V18.25H285.5C286.227 16.2045 287.439 14.5909 289.136 13.4091C290.833 12.2273 292.864 11.6364 295.227 11.6364C297.621 11.6364 299.659 12.2348 301.341 13.4318C303.023 14.6136 304.144 16.2197 304.705 18.25H305.068C305.78 16.25 307.068 14.6515 308.932 13.4545C310.811 12.2424 313.03 11.6364 315.591 11.6364C318.848 11.6364 321.492 12.6742 323.523 14.75C325.568 16.8106 326.591 19.7348 326.591 23.5227V47H316.932V25.4318C316.932 23.4924 316.417 22.0379 315.386 21.0682C314.356 20.0985 313.068 19.6136 311.523 19.6136C309.765 19.6136 308.394 20.1742 307.409 21.2955C306.424 22.4015 305.932 23.8636 305.932 25.6818V47H296.545V25.2273C296.545 23.5152 296.053 22.1515 295.068 21.1364C294.098 20.1212 292.818 19.6136 291.227 19.6136C290.152 19.6136 289.182 19.8864 288.318 20.4318C287.47 20.9621 286.795 21.7121 286.295 22.6818C285.795 23.6364 285.545 24.7576 285.545 26.0455V47H275.864ZM363.284 22.0455L354.42 22.5909C354.269 21.8333 353.943 21.1515 353.443 20.5455C352.943 19.9242 352.284 19.4318 351.466 19.0682C350.663 18.6894 349.701 18.5 348.58 18.5C347.08 18.5 345.814 18.8182 344.784 19.4545C343.754 20.0758 343.239 20.9091 343.239 21.9545C343.239 22.7879 343.572 23.4924 344.239 24.0682C344.905 24.6439 346.049 25.1061 347.67 25.4545L353.989 26.7273C357.383 27.4242 359.913 28.5455 361.58 30.0909C363.246 31.6364 364.08 33.6667 364.08 36.1818C364.08 38.4697 363.405 40.4773 362.057 42.2045C360.723 43.9318 358.89 45.2803 356.557 46.25C354.239 47.2045 351.564 47.6818 348.534 47.6818C343.913 47.6818 340.231 46.7197 337.489 44.7955C334.761 42.8561 333.163 40.2197 332.693 36.8864L342.216 36.3864C342.504 37.7955 343.201 38.8712 344.307 39.6136C345.413 40.3409 346.83 40.7045 348.557 40.7045C350.254 40.7045 351.617 40.3788 352.648 39.7273C353.693 39.0606 354.223 38.2045 354.239 37.1591C354.223 36.2803 353.852 35.5606 353.125 35C352.398 34.4242 351.277 33.9848 349.761 33.6818L343.716 32.4773C340.307 31.7955 337.769 30.6136 336.102 28.9318C334.451 27.25 333.625 25.1061 333.625 22.5C333.625 20.2576 334.231 18.3258 335.443 16.7045C336.67 15.0833 338.39 13.8333 340.602 12.9545C342.83 12.0758 345.436 11.6364 348.42 11.6364C352.83 11.6364 356.299 12.5682 358.83 14.4318C361.375 16.2955 362.86 18.8333 363.284 22.0455Z" fill="#ED9D53"/>
</svg>
