<svg width="18" height="16" viewBox="0 0 18 16" fill="none" xmlns="http://www.w3.org/2000/svg">
<rect width="18" height="1.45455" transform="matrix(1 0 0 -1 0 1.45459)" fill="#0E0E10"/>
<rect width="18" height="1.45455" transform="matrix(1 0 0 -1 0 1.45459)" fill="black" fill-opacity="0.2"/>
<rect width="18" height="1.45455" transform="matrix(1 0 0 -1 0 1.45459)" fill="black" fill-opacity="0.2"/>
<rect width="18" height="1.45455" transform="matrix(1 0 0 -1 0 8.72705)" fill="#0E0E10"/>
<rect width="18" height="1.45455" transform="matrix(1 0 0 -1 0 8.72705)" fill="black" fill-opacity="0.2"/>
<rect width="18" height="1.45455" transform="matrix(1 0 0 -1 0 8.72705)" fill="black" fill-opacity="0.2"/>
<rect width="18" height="1.45455" transform="matrix(1 0 0 -1 0 16)" fill="#0E0E10"/>
<rect width="18" height="1.45455" transform="matrix(1 0 0 -1 0 16)" fill="black" fill-opacity="0.2"/>
<rect width="18" height="1.45455" transform="matrix(1 0 0 -1 0 16)" fill="black" fill-opacity="0.2"/>
</svg>
