<svg xmlns="http://www.w3.org/2000/svg" xmlns:xlink="http://www.w3.org/1999/xlink" viewBox="0,0,256,256" width="30px" height="30px"><g fill="#636c76" fill-rule="nonzero" stroke="none" stroke-width="1" stroke-linecap="butt" stroke-linejoin="miter" stroke-miterlimit="10" stroke-dasharray="" stroke-dashoffset="0" font-family="none" font-weight="none" font-size="none" text-anchor="none" style="mix-blend-mode: normal"><g transform="scale(8.53333,8.53333)"><path d="M21.225,17.889c-0.406,-0.238 -0.905,-0.233 -1.309,0.007l-2.046,1.219c-0.458,0.273 -1.03,0.241 -1.45,-0.087c-0.726,-0.567 -1.895,-1.521 -2.912,-2.538c-1.017,-1.017 -1.971,-2.186 -2.538,-2.912c-0.328,-0.42 -0.36,-0.992 -0.087,-1.45l1.219,-2.046c0.241,-0.404 0.243,-0.907 0.005,-1.313l-3.002,-5.128c-0.291,-0.496 -0.869,-0.74 -1.428,-0.603c-0.543,0.132 -1.248,0.454 -1.987,1.194c-2.314,2.314 -3.543,6.217 5.159,14.919c8.702,8.702 12.604,7.474 14.919,5.159c0.741,-0.741 1.062,-1.447 1.195,-1.991c0.135,-0.558 -0.105,-1.132 -0.6,-1.422c-1.236,-0.723 -3.902,-2.284 -5.138,-3.008z"></path></g></g></svg>