<svg width="175" height="188" viewBox="0 0 175 188" fill="none" xmlns="http://www.w3.org/2000/svg">
<path d="M111.699 0.375C132.729 0.375 149.786 17.0015 149.786 37.5022C149.786 40.2463 147.634 42.3448 144.818 42.3448H128.259C116.336 42.3448 106.731 32.9823 106.731 21.3599V10.0603H22.2774C15.8192 10.0603 10.6857 15.0644 10.6857 21.3599V166.64C10.6857 172.936 15.8192 177.939 22.2774 177.939H118.323C121.139 177.939 123.291 180.038 123.291 182.782C123.291 185.527 121.139 187.625 118.323 187.625H22.2774C10.3545 187.625 0.75 178.262 0.75 166.64V21.3599C0.75 9.7375 10.3545 0.375 22.2774 0.375H111.699ZM149.786 58.487V87.5431C149.786 90.2877 147.634 92.3858 144.818 92.3858C142.003 92.3858 139.85 90.2877 139.85 87.5431V58.487C139.85 55.7429 142.003 53.6444 144.818 53.6444C147.634 53.6444 149.786 55.7429 149.786 58.487ZM148.296 114.824L173.134 139.037C175.121 140.974 175.121 143.879 173.134 145.816L148.296 170.03C146.473 171.967 143.329 171.967 141.342 170.03C140.348 169.061 139.85 167.77 139.85 166.64C139.85 165.51 140.348 164.219 141.342 163.25L157.736 147.269H103.42C100.603 147.269 98.4517 145.172 98.4517 142.427C98.4517 139.683 100.603 137.584 103.42 137.584H157.736L141.342 121.603C139.354 119.827 139.354 116.761 141.342 114.824C142.252 113.855 143.494 113.37 144.756 113.37C146.02 113.37 147.301 113.855 148.296 114.824Z" fill="#636C76" stroke="#636C76" stroke-width="0.5" stroke-miterlimit="10" stroke-linejoin="round"/>
</svg>
