<svg width="20" height="20" viewBox="0 0 20 20" fill="none" xmlns="http://www.w3.org/2000/svg">
<path d="M12.8691 1.25C14.8345 1.25 16.4286 2.80388 16.4286 4.71983C16.4286 4.97629 16.2275 5.17241 15.9643 5.17241H14.4167C13.3024 5.17241 12.4048 4.29741 12.4048 3.21121V2.15517H4.51191C3.90834 2.15517 3.42857 2.62284 3.42857 3.21121V16.7888C3.42857 17.3772 3.90834 17.8448 4.51191 17.8448H13.4881C13.7513 17.8448 13.9524 18.0409 13.9524 18.2974C13.9524 18.5539 13.7513 18.75 13.4881 18.75H4.51191C3.39762 18.75 2.5 17.875 2.5 16.7888V3.21121C2.5 2.125 3.39762 1.25 4.51191 1.25H12.8691ZM16.4286 6.68103V9.39655C16.4286 9.65306 16.2275 9.84914 15.9643 9.84914C15.7012 9.84914 15.5 9.65306 15.5 9.39655V6.68103C15.5 6.42457 15.7012 6.22845 15.9643 6.22845C16.2275 6.22845 16.4286 6.42457 16.4286 6.68103ZM16.2893 11.9462L18.6107 14.2091C18.7964 14.3901 18.7964 14.6616 18.6107 14.8426L16.2893 17.1056C16.119 17.2866 15.8251 17.2866 15.6394 17.1056C15.5465 17.015 15.5 16.8944 15.5 16.7888C15.5 16.6832 15.5465 16.5625 15.6394 16.472L17.1716 14.9784H12.0953C11.8321 14.9784 11.631 14.7824 11.631 14.5259C11.631 14.2694 11.8321 14.0733 12.0953 14.0733H17.1716L15.6394 12.5797C15.4536 12.4137 15.4536 12.1272 15.6394 11.9462C15.7245 11.8556 15.8406 11.8103 15.9585 11.8103C16.0766 11.8103 16.1964 11.8556 16.2893 11.9462Z" fill="#636C76" stroke="#636C76" stroke-width="0.5" stroke-miterlimit="10" stroke-linejoin="round"/>
</svg>
