<svg xmlns="http://www.w3.org/2000/svg" viewBox="0 0 3000 3000" width="3000" height="3000"><g transform="translate(121.5 1260.0) rotate(0.0 591.0 545.25) scale(1.4982431767825546 1.4979889446904844)"><svg width="788.924" height="727.976" viewBox="0 0 788.924 727.976"><g><g><g fill="#fff"><path d="M784.881 625.681a2.017 2.017 0 0 0-1.704-.732c-11.517.821-22.981 5.387-34.067 9.804-17.903 7.133-34.812 13.869-52.598 6.846-3.296-1.607-4.737.679-5.577 2.026-11.829 21.83-36.528 31.735-55.166 36.2a2.014 2.014 0 0 0-1.422 2.663l14.949 40.222a2.018 2.018 0 0 0 2.29 1.274l.038-.008c21.938-4.875 22.206-12.638 20.278-22.28-.957-4.79-1.788-8.947 2.468-12.858 4.36-.281 6.854 2.808 9.724 6.363 3.764 4.663 8.443 10.46 17.971 5.018 47.571-18.336 74.788-42.125 83.199-72.724a2.017 2.017 0 0 0-.385-1.814ZM122.017 378.693a1677.745 1677.745 0 0 1-6.448-8.787c-.48-.66-1.317-.982-2.103-.776-6.867 1.646-11.277 4.347-13.483 8.257-3.12 5.532-1.04 12.039.796 17.781 1.372 4.292 2.668 8.348 1.219 10.418-1.009 1.445-3.56 2.274-7.585 2.462-5.343-.919-7.096-3.413-8.952-6.052-1.356-1.93-2.759-3.925-5.392-5.161a2.01 2.01 0 0 0-1.493-.09c-27.453 9.081-49.136 32.396-67.324 53.558-5.927 7.105-10.139 17.308-6.271 22.226 1.753 2.229 4.62 2.948 8.579 2.149 2.303-.465 4.976-1.444 8.015-2.937 12.815-7.028 26.659-12.43 40.047-17.655 3.863-1.508 7.726-3.015 11.658-4.599 7.346-3.357 14.535-2.096 22.857-.635l2.404.418a2.015 2.015 0 0 0 2.162-1.122c7.248-15.234 23.402-23.153 48.01-23.549a2.016 2.016 0 0 0 1.754-2.958c-8.134-15.396-18.462-29.404-28.451-42.949Zm318.932-294.88c-8.904-8.663-7.821-14.846-6.449-22.674 1.067-6.085 2.276-12.982-1.386-21.704a2.015 2.015 0 0 0-1.331-1.166 2.014 2.014 0 0 0-1.739.331c-14.508 10.842-21.545 10.832-25.751 10.828-3.873-.005-6.356.277-8.472 5.868-3.619 10.166-11.99 21.911-24.712 24.479l-.122.025c-2.157.486-4.824.355-7.624.202-4.637-.254-9.43-.514-13.157 2.117-.338.24-.595.577-.735.967-1.681 4.687-1.822 7.885-.445 10.064 1.615 2.554 4.666 2.86 7.358 3.128 3.745.375 4.913.782 5.177 2.706.028 7.255-1.423 14.657-2.827 21.821-.847 4.319-1.722 8.788-2.268 13.14l-.204 1.196c-1.17 6.785-.556 7.797 5.965 9.853l.963.305c8.087 3.26 18.187 5 26.544 3.314 3.477-.702 6.652-1.996 9.255-4.022 3.764-2.928 7.927-8.735 6.437-19.787-.057-6.106 5.137-7.093 13.673-7.981 6.859-.712 14.634-1.525 14.723-8.988a1.992 1.992 0 0 0-.045-.45c-1.771-8.188 1.689-11.385 4.743-14.206 2.307-2.133 5.179-4.787 2.769-8.931a2.018 2.018 0 0 0-.337-.432Z"/><path d="M625.047 252.775c-9.716-8.92-26.517-11.996-40.449 2.334a1.899 1.899 0 0 0-.12.135c-1.017 1.253-2.04 2.55-3.08 3.867-7.833 9.93-15.96 20.2-28.249 21.251-14.475.848-24.452-2.456-31.38-10.396a28.69 28.69 0 0 0-1.186-1.861c7.213-7.831 14.54-17.835 11.705-27.845-3.788-14.824-11.228-26.492-19.902-31.215-4.072-2.218-8.194-2.741-11.912-1.49-.621.21-1.255.383-1.896.518a2.015 2.015 0 0 0 .823-2.518 644.794 644.794 0 0 1-2.544-6.116c-6.921-16.799-14.077-34.172-31.334-43.379-1.45-.834-3.064-1.795-4.81-2.834-16.891-10.05-45.148-26.864-59.659-11.255-13.883 12.796-26.978 9.045-42.14 4.705-13.716-3.927-29.265-8.377-46.877.462-3.867 2.132-7.873 4.125-12.116 6.233-18.723 9.308-38.084 18.934-44.273 40.42-8.185 30.003-5.883 63.165 6.305 91.124-1.173 3.675-1.885 8.172-2.122 13.468.287 45.948 1.436 47.75 41.017 64.314l3.522 1.476c.062.026.125.048.191.069 24.768 7.569 91.145 9.716 125.281-9.49 10.896-6.129 17.613-13.928 19.963-23.179.017-.068.031-.136.041-.205.204-1.388.328-2.787.37-4.19 7.509-4.169 14.941-8.928 22.13-14.172a26.98 26.98 0 0 0 1.346 1.74c.042.049.087.098.134.143l.211.207c15.627 15.295 31.785 31.112 55.7 30.752a106.42 106.42 0 0 0 30.28-1.685c26.192-5.287 49.522-20.385 64.527-42.732 16.274-18.807 11.679-38.398.504-48.657Z"/><path d="M588.795 179.978c-22.531-10.584-42.381-3.534-59.212 6.256.582-.868 1.22-1.725 1.87-2.598 2.995-4.024 6.39-8.586 4.511-15.459a2.017 2.017 0 0 0-3.36-.906c-9.667 9.487-14.731 20.371-20.092 31.893-.692 1.487-1.388 2.986-2.1 4.491-.331.695-.305 1.508.078 2.416.347.824 1.381 2.509 2.934 3.035 8.638 2.378 12.859 10.45 16.942 18.257.727 1.39 1.447 2.767 2.174 4.081.948 1.773 2.579 2.744 4.593 2.734a7.073 7.073 0 0 0 1.37-.148c6.037-1.22 13.871-9.62 15.589-12.787 5.118-7.966 10.579-14.353 16.293-19.061l-1.977 3.721a2.018 2.018 0 0 0 .67 2.628l1.024.676a2.018 2.018 0 0 0 2.772-.526c.454-.65 1.387-1.661 2.377-2.731 3.375-3.654 7.202-7.796 5.929-11.318-.654-1.811-2.441-2.922-5.313-3.304a1.706 1.706 0 0 0-.142-.014c-3.462-.215-8.252-.068-12.505 2.998 3.234-2.721 6.962-4.378 11.368-5.072.847-.141 1.599-.88 1.691-1.793a2.015 2.015 0 0 0-1.304-2.089c-6.141-2.282-12.597-.094-18.845 2.025-2.04.692-4.019 1.362-5.937 1.867 7.835-7.203 27.487-7.324 37.371-5.462a2.013 2.013 0 0 0 2.295-1.361 2.015 2.015 0 0 0-1.061-2.446Zm88.961 18.365-.755-.97a2.018 2.018 0 0 0-2.609-.5l-4.521 2.634-2.607 1.517c2.961-2.051 5.931-4.198 8.649-6.594.688-.606.881-1.6.469-2.418l-.476-.941a2.007 2.007 0 0 0-2.411-1.008c-7.841 2.493-14.861 6.43-21.512 10.767l.139-.114c3.918-3.189 7.97-6.486 11.352-10.359a2.017 2.017 0 0 0 .169-2.433l-.498-.762a2.021 2.021 0 0 0-2.422-.781c-5.953 2.309-11.294 6.23-16.46 10.019-2.436 1.787-4.953 3.634-7.517 5.285-2.096 1.483-3.889 3.292-5.622 5.042-2.369 2.391-4.629 4.673-7.464 5.951 1.406-7.02 3.999-12.41 8.914-18.699a2.016 2.016 0 0 0 .073-2.383 2.007 2.007 0 0 0-2.251-.787c-12.923 3.931-27.882 36.172-26.322 51.413.056.54.327 1.035.752 1.374.426.337.969.489 1.509.422 9.208-1.162 16.651 3.62 23.847 8.243a2.019 2.019 0 0 0 2.974-.967c7.056-18.165 21.054-30.161 35.876-42.86 2.791-2.392 5.678-4.864 8.471-7.347a2.017 2.017 0 0 0 .253-2.744Z"/></g><path d="M99.997 404.216c-1.299-6.698-6.017-13.064-6.226-19.533 3.556-9.743 11.408-17.287 22.206-17.981 13.275 12.849 23.371 30.166 34.036 45.504 8.187 19.146 6.716 10.108 19.851 23.109 13.183 13.728 20.86 31.102 31.957 46.152 6.353 8.616 11.87 17.915 20.917 24.409 8.176 5.869 22.462 5.996 29.416-1.058 11.702-12.333 4.972-34.637 5.337-50.275-1.001-16.084-3.433-32.171-3.133-48.217.283-15.126 3.181-30.219 5.246-45.283.404-2.947 2.343-5.667 3.404-8.553.362-.983.664-2.423.212-3.202-5.431-9.349-6.492-19.749-7.093-30.159-.467-8.084-1.211-16.391.11-24.274 1.401-8.359-2.241-15.02-4.467-22.205-6.376-20.275-4.128-41.758-2.436-62.537 2.187-19.045 10.349-34.82 27.087-45.632 22.454-14.81 46.933-28.622 74.821-24.717l3.394-20.712c-26.527-6.869-39.642-50.23-31.474-73.645 4.555-13.056 10.625-24.327 35.044-35.869 25.146-11.887 58.821-15.998 77.469 7.605 3.763 5.33 3.794 11.013.802 16.803-.423.818-.611 2.128-.257 2.919 3.997 8.902 3.381 17.949 1.081 27.078-2.111 7.287 4.636 12.3 8.081 17.89 5.37 7.94-10.863 7.717-7.595 23.194.834 11.913-15.498 14.799-24.488 15.992-2.689.349-3.823 1.054-3.768 3.947.059 3.122-.526 6.257-.795 9.026 15.681-.507 30.888 1.083 44.231 9.734 9.152 5.418 18.62 10.232 26.767 17.379 13.094 11.792 18.618 27.93 24.228 43.972l2.561.069c7.191-14.622 13.923-27.988 26.196-38.684 3.773-3.073 7.542-.945 6.954 3.854-.953 4.091-2.667 8.005-3.985 11.725 16.612-11.035 37.794-13.588 56.016-4.913 4.506 3.352 5.019 7.132-.579 9.516-2.999 1.016-6.609-.119-9.769.728.127.68.036 1.532.416 2.011 3.195 4.024 3.233 7.758-.389 11.598-3.615 3.834-7.398 7.523-11.28 11.088-3.5 3.215-4.848 2.757-6.476-2.082-6.861 12.085-14.981 20.825-26.824 28.349-.073 3.136.101 7.192-.382 11.168-2.439 5.699-6.262 11.235-10.404 16.023 7.805 10.792 23.469 13.078 35.661 9.894 12.217-4.738 17.989-18.112 27.446-26.427 2.717-3.078 8.629-3.222 10.876-6.801 2.26-11.35 4.954-22.644 10.915-32.638 5.454-8.145 12.307-20.409 23.184-21.007.162 1.761.55 3.541.4 5.274-2.36 4.612-6.413 7.804-6.226 14.067 8.295-8.255 17.73-14.223 26.99-21.177 1.651-1.182 3.783-1.722 5.733-2.452 2.132-.798 4.599-.802 5.575 1.275.637 2.028-1.327 4.636-2.068 6.909 3.887-.689 9.863-5.283 13.279-2.426 1.275 2.491-.297 4.16-2.544 5.985 4.431-.266 4.541 2.334 3.451 4.969-5.154 10.439-17.146 15.417-25.155 23.503-7.191 6.213-11.67 14.409-16.123 22.696-2.714 5.052-2.925 9.005.279 13.95 7.417 15.658-4.606 32.947-14.109 44.969-21.084 26.164-52.902 46.408-87.48 44.564-7.871-.4-15.854-.294-23.567-1.655-15.444-3.636-33.898-18.602-42.753-31.922-4.43 2.721-8.617 5.232-12.716 7.878-3.749 6.377-5.845 13.865-9.047 20.781 11.545 2.92 22.414 7.781 33.136 13.01 12.531 5.608 25.601 10.007 38.393 15.041 26.307 9.905 52.448 23.256 69.71 46.123 7.849 9.07 16.015 17.906 23.285 27.421 17.41 23.909 29.791 51.111 43.93 77.002 9.487 20.014 18.63 40.217 27.936 60.321 7.684 16.468 12.074 34.053 11.37 52.341 30.195 13.903 58.459-12.599 87.856-16.424 3.33-.416 5.43 2.136 5.283 5.508-.538 12.332-6.914 22.055-14.175 31.284-7.52 9.558-17.988 15.715-27.743 22.535-16.044 11.396-34.008 19.555-52.57 25.962-8.708 3.608-13.021-6.52-18.005-11.763l-1.344.538c1.059 8.189 6.439 17.711-3.274 22.364-7.365 5.023-14.513 10.337-23.75 10.967-.666.122-1.975-.906-2.305-1.69-5.416-12.353-9.591-25.165-13.68-38.002-1.259-3.766.129-8.432-4.805-9.77-6.039-2.103-9.494-7.379-13.664-11.668-14.243-14.65-23.248-32.672-31.94-50.82-23.549-44.496-42.931-94.873-84.191-126.213-7.464-5.992-13.868-13.67-22.734-17.751-21.381-11.715-44.317-19.371-68.777-20.823-4.452-.602-7.753 1.737-10.278 4.858-10.858 11.895-13.386 27.553-15.972 42.805-9.006 45.829-24.329 75.029-63.084 102.65-13.175 9.515-26.64 19.944-42.534 23.354-21.21 4.549-47.172-1.351-64.88-8.675-24.599-10.546-44.525-28.273-61.71-48.341-24.902-24.27-61.668-78.455-52.637-114.017-10.966-4.555-21.162-1.166-31.669 2.722-10.717 3.768-21.399 7.772-31.543 12.924-7.193 3.453-13.915 7.968-22.096 9.127-5.267.746-8.133-.124-9.337-6.475-3.908-24.144 45.739-58.412 63.209-72.112 5.474-4.331 11.883-6.202 18.608-6.885 9.221-.441 5.912 11.069 17.961 11.05v.002Zm397.547-197.874c-7.837-18.466-14.286-38.549-33.028-48.533-16.914-10.286-34.351-21.474-54.977-19.771-2.977.453-4.906 3.467-7.057 5.36-14.705 14.685-33.375 9.69-50.192 2.5-12.875-2.668-27.142-2.397-39.279 3.005-11.359 5.63-22.448 11.81-33.564 17.917-11.086 6.091-17.722 16.112-21.853 27.502-5.3 20.445-5.907 48.774-1.294 69.452 3.83 12.887 9.022 25.794 15.828 37.348 16.987 24.636 43.762 42.28 73.81 45.299 20.789 4.1 41.39.518 61.822-3.75 18.49-4.025 34.861-14.356 51.249-23.41 21.782-11.43 37.675-30.329 54.76-47.521 6.212-6.115 11.887-12.46 16.091-20.262 4.444-10.169-3.727-19.096-7.402-28.027-6.502-12.287-24.726-16.799-35.445-6.514-10.623 9.662-20.57 20.263-31.631 29.354-30.479 22.751-79.161 54.844-111.068 17.417-9.843-11.782-17.026-25.343-23.613-39.15-1.082-2.268-2.245-5.23.131-9.045 9.265 13.388 15.407 27.38 25.645 39.957 18.711 25.845 54.171 22.921 78.042 6.241 11.149-7.172 22.021-14.782 32.905-22.357 3.657-4.01 1.325-20.22 2.181-26.526.034-2.023.516-3.712 3.623-4.086l.947 24.369c12.258-8.648 18.763-21.224 33.368-26.771Zm22.575 64.801c-14.962 13.876-27.323 30.101-44.88 42.305 15.423 15.108 31.342 30.776 54.571 30.385 25.44 1.034 48.905-2.91 69.447-19.085 14.755-11.855 29.376-26.918 33.68-46.02 3.169-18.416-14.599-34.261-32.382-30.805-5.756 1.135-10.824 3.242-14.509 8.589-8.653 10.656-17.783 24.587-32.778 25.864-12.172.711-24.461-1.16-33.148-11.233Zm131.069 450.864c8.778-1.5 22.117-6.579 19.452-17.436-1.259-3.631-1.658-7.811-1.319-11.648.802-4.671 5.443-8.386 10.113-5.005 9.216 6.163 8.878 16.676 21.759 10.474 18.276-6.471 35.477-16.273 51.258-27.388 13.56-11.644 26.69-26.356 30.868-44.043-2.126-.255-4.317-.719-6.374.128-9.996 3.559-20.003 7.09-29.961 10.754-15.953 6.088-34.557 12.635-51.293 5.601-1.656-.835-2.108-.251-2.983 1.14-5.653 11.978-16.099 19.235-27.095 25.882-9.226 5.979-18.351 8.615-29.374 11.32l14.948 40.221ZM113.936 371.093c-8.551 1.416-16.392 8.995-13.213 18.072 1.438 3.684 2.965 7.367 3.974 11.178 1.518 5.735-4.497 11.023-10.408 9.731-11.581-2.275-10.14-10.078-15.076-11.412-13.812 2.589-23.662 13.062-34.679 20.949-11.942 9.287-22.346 20.133-31.731 31.986-9.158 11.422-13.087 28.284 7.803 18.377 16.577-9.09 34.384-15.3 51.837-22.321 8.672-3.964 17.183-1.944 26.439-.37 10.029-19.727 28.904-23.969 49.801-24.699-9.779-18.509-22.54-34.7-34.746-51.492ZM431.253 40.215c-1.983 1.102-3.633 1.732-4.933 2.79-15.796 14.349-25.986 3.274-28.597 12.966-4.213 11.834-13.538 23.291-26.284 25.795-6.171 1.411-14.831-1.704-20.068 2-2.589 5.816-1.63 11.222 6.989 10.793 3.01-.15 4.883 1.296 5.217 4.292.072 11.9-3.638 23.628-5.12 35.428-1.253 7.423-1.611 6.881 5.417 9.121 11.187 4.533 34.138 7.838 38.73-6.973.63-3.765.65-7.64.803-11.472-.284-15.749 29.579-5.565 28.395-17.144-3.216-16.878 11.746-15.921 7.74-22.55-17.766-18.904.217-23.623-8.289-45.045Zm16.598 290.863c-12.159 4.775-23.339 11.097-35.546 15.416-26.896 8.2-56.448 9.499-83.824 2.864-8.192-2.216-16.203-5.283-24.024-8.605-17.064-10.648-30.513-26.481-42.607-42.382-1.062 12.234.72 24.878 3.336 36.963 1.452 6.206 4.609 11.044 10.602 13.743 9.844 4.19 19.483 9.261 29.363 13.237 41.434 10.167 86.483 7.297 125.56-10.241 9.382-3.89 14.494-11.275 17.139-20.995Zm108.076-131.37c4.505-6.94 10.295-11.18 18.342-12.463-5.761-3.615-21.027 4.296-28.546 4.844 3.224-11.536 32.358-12.793 42.213-10.286-19.378-9.044-42.93-5.463-59.23 8.268-.893.757-2.363.832-3.565 1.225 1.642-8.522 11.598-12.624 8.877-22.586-10.638 10.438-15.628 22.787-21.783 35.809-.249.524.902 2.36 1.725 2.641 11.088 3.053 15.297 14.173 20.358 23.331 2.612 6.366 16.399-6.586 18.032-10.268 5.733-8.936 12.909-17.591 21.829-23.315l.839.847-4.828 9.092 1.027.679c2.498-3.557 14.08-12.92 4.381-14.2-5.074-.311-9.694.538-13.368 4.559-1.393 1.524-3.052 3.311-6.305 1.825Zm106.031-10.678-.502-.77c-8.494 3.296-15.806 10.099-23.541 15.068-5.379 3.81-8.868 10.181-15.59 11.96l-1.005-.994c1.379-8.42 4.19-14.546 9.668-21.556-11.409 3.471-26.449 34.178-24.903 49.278 9.684-1.222 17.419 3.556 25.192 8.549 9.933-24.018 26.664-34.491 44.887-50.985l-.751-.966c-4.971 2.901-9.954 5.783-14.909 8.71-4.858 2.87-8.235 8.029-14.321 9.118 2.906-5.822 8.717-8.46 13.465-12.217 4.895-3.873 9.949-7.547 14.934-11.307l-.471-.934c-11.674 4.392-22.765 10.199-32.075 18.627-.971.856-2.318 1.285-3.492 1.912l-.634-.93c6.417-8.71 16.828-14.297 24.048-22.562Z"/></g><g><path d="m660.694 231.805-110.359 14.186-4.881-2.569 69.818-111.796 35.139-5.307 10.283 105.487Z" fill="#fff"/><path d="M615.272 131.625c5.889-2.43 19.185-3.167 18.262-4.294-1.168-6.36-3.144-12.032-4.403-18.344-.163-.81-.834-1.981-.093-2.253 11.601-15.261 21.678-32.161 32.849-47.914 33.436-49.03 29.844-45.625 31.2-41.548 15.826 75.25 22.344 112.079 23.991 116.021-10.485 18.841-21.314 37.58-31.98 56.409-26.892 47.183-23.771 42.389-25.879 43.04-19.501 2.599-39.062 4.973-58.661 7.356-57.932 6.551-54.896 7.912-54.919 3.338 3.098-8.707 10.571-17.571 15.346-26.333 17.891-28.756 35.503-57.237 54.288-85.48Zm2.155 67.437c23.904-62.885 20.741-50.916 20.129-55.421-1.11-4.311-1.723-9.191-3.427-12.926a796.935 796.935 0 0 0-15.362 2.557c-2.607-.428-2.496.276-3.727 2.349-21.891 36.069-43.432 71.91-66.165 107.323 36.239-3.477 73.617-8.51 110.429-11.833-1.693-5.419-.606-6.138-2.92-5.875-15.631-1.688-32.067-2.474-47.521-4.531 2.491-7.257 4.829-14.751 8.564-21.643Zm30.159 1.539c3.967-9.254.036-14.138-1.255-21.755-.683-.848-7.908-.976-7.562-.438-1.608 7.526-3.73 14.556-5.897 21.985l14.714.207Zm-.478 2.956c-4.759-.472-10.159-.725-14.901-.67-1.518 5.66-2.971 12.103-4.576 17.499 19.134.349 14.77 2.235 16.141-2.524 1.388-4.776 2.352-9.296 3.335-14.304Zm-21.958 16.481c-.186-3.678 5.939-18.709 3.703-17.676-12.643-1.684-8.777-.624-13.297 8.619-.89 2.967-2.415 5.993-3.138 8.612 4.223.234 8.464.078 12.732.446Zm-4.672-20.438c2.823.053 10.252 1.118 9.822.093 2.436-7.148 4.604-14.596 6.525-22.033-8.876.055-7.364-3.301-9.445 3.864-1.914 6.106-4.754 11.912-6.902 18.076Zm18.247-51.189c-2.943 8.966-6.436 17.753-9.112 26.881 10.144.55 7.013 1.89 9.141-4.396 4.521-14.121 2.434-11.879-.029-22.485Zm10.5 55.169c-2.473 18.29-4.47 17.447-2.686 17.72 3.534.135 6.843 1.244 10.499.796-6.092-22.771-3.003-17.941-7.813-18.516Zm-6.662-39.913c-1.415 3.417-2.03 8.293-3.195 12.257l6.163-.073-2.968-12.184Zm9.206 37.1c-1.607-6.276-1.096-3.631-2.157-.045l2.157.045Z"/><path d="M609.066 154.956c21.503 4.022 18.999 1.948 16.453 7.638-3.885 7.641-7.683 15.016-11.509 22.714-4.297 8.104-7.981 16.288-12.475 24.083-6.105-1.585-12.262-4.487-18.321-6.503l25.852-47.933Z"/></g><g><path d="M512.301 200.694c2.549-7.004 19.455-36.13 24.284-32.452 4.829 3.678-8.86 21.135-8.86 21.135s18.612-12.695 30.795-13.685c12.183-.99 31.265.915 32.786 5.996s-13.921 2.809-19.084 2.382c-5.163-.427-23.821 6.522-23.821 6.522l21.774-5.619s6.924 1.174 7.945 4.397c1.022 3.222-9.663-2.472-18.587 8.527 0 0 13.963-11.156 20.917-3.732 4.739 5.06-11.929 17.71-13.088 16.157s3.639-9.596 3.639-9.596-12.164 12.128-16.497 19.493c-4.334 7.364-12.616 12.342-12.616 12.342l-29.587-31.866Z" fill="#fff"/><path d="M534.568 183.318c15.786-10.428 33.846-14.054 51.771-7.54 3.312 1.166 9.832 2.46 8.861 6.982-3.404 9.01-16.56 1.122-13.72 7.034 7.916 8.883-6.226 16.265-11.535 22.376-3.55 3.218-4.794 2.79-6.467-2.166-6.974 9.47-10.265 18.899-23.699 25.499-.347-.806-.736-2.246-1.285-3.521 10.496-4.399 12.956-11.654 19.554-19.671 4.158-4.631 8.58-9.034 12.984-13.441.759-.76 1.976-1.071 2.982-1.589l.838.698-4.82 9.062 1.038.753c2.556-3.122 5.402-6.062 7.575-9.425 4.241-8.108-14.464-4.601-16.853.106-1.338 1.458-2.99 3.045-5.8 1.503 4.309-6.741 9.96-11.118 18.97-11.77-6.852-4.589-16.553.894-23.637 2.417-2.446 1.136-3.494 2.002-6.664 2.037 2.537-4.448 5.812-6.475 9.641-7.621 10.96-3.281 21.998-5.909 33.499-2.35l.206-1.144c-20.316-7.3-43.462-5.043-59.936 9.517-.786.492-1.885.493-2.845.713.186-1.078.075-2.332.608-3.204 3.293-5.973 8.814-10.965 9.057-18.12l-.926-.388c-1.04.885-2.308 1.609-3.08 2.682-6.69 9.305-14.003 18.226-17.257 29.375-.642 1.607-1.441 3.102-3.561 2.223-2.002-.83-1.569-2.318-.869-3.791 1.591-3.349 3.148-6.714 4.827-10.02 2.119-4.901 18.548-29.185 24.336-24.366 4.149 4.259-1.163 12.403-3.793 17.152Z"/></g></g></svg></g><g transform="translate(406.5 394.5) rotate(0.0 1159.5 1230.75) scale(1.5024821082175859 1.50227034152772)"><svg width="1543.446" height="1638.52" viewBox="0 0 1543.446 1638.52"><g fill="#fff"><path d="M999.014 894.414c-103.02.88-202.195-44.835-77.234-43.333 25.507 12.273 55.141 26.223 77.234 43.333zm-63.369 148.668c-34.455 69.14-58.345 62.068-112.033 74.568 24.866-30.629 79.108-79.393 112.033-74.568zM724.306 654.253l15.994 22.723c-170.752 88.922-142.734 46.404-15.994-22.723zm695.558 530.385c33.87-11.091 74.913-29.023 102.638-19.769-23.39 30.807-65.148 31.706-97.024 53.442-2.36-2.834-6.197-24.992-5.614-33.674zM236.736 1458.495c7.283-49.822 79.073-167.522 55.22-46.786-13.915 18.608-35.877 35.117-55.22 46.786zm322.821-58.097c21.493-18.911 49.52-35.158 80.682-23.37 73.56 22.508-71.009 33.641-80.682 23.37zm497.897-1242.632c17.054-31.528 33.866-74.125 64.799-87.01-5.589 27.274-39.057 94.672-64.799 87.01zM807.819 467.957c9.095-34.098 60.706-64.854 85.283-67.09-15.022 33.568-55.177 47.123-85.283 67.09zm427.405 869.909c-8.634-23.982-12.895-54.153-7.966-80.85 17.752 21.67 35.894 58.222 7.966 80.85zm-314.688-240.132c10.623-12.752 50.569-33.851 69.794-31.183-18.401 34.847-39.982 27.522-69.794 31.183z"/><path d="m1217.759 132.166-156.973 33.9-198.98 89.91-154.761 151.077-26.749 112.018 39.277 112.018 71.485 111.281 111.281 81.066 174.66 106.122 160.426 128.232 52.556 81.802 14.739 75.17-44.218 103.175-78.117 98.016-88.436 56.009-61.168 16.95-60.43-13.265-29.479-36.848 33.9-56.746 83.277-94.331 30.215-58.22-3.684-61.168-61.905-50.685-89.03-19.915-103.317 19.915-127.494 51.422-285.204 170.975-182.894 132.653-125.893 117.914 69.274 15.476 131.916-18.424 191.61-163.606 209.297-126.618 142.971-62.781 54.535-4.421 25.199 8.843 19.788 17.934-9.613 46.182-100.227 140.022-21.981 44.955 13.875 58.22 47.165 36.848 120.125 9.58 197.505-61.167 113.493-78.118 77.38-115.672 19.161-68.569-3.684-96.541-44.955-99.49-39.796-62.642L1212.6 891.236l-137.812-86.224-170.975-105.386-112.018-125.283 2.948-102.438 68.537-103.911 128.969-78.118 236.564-67.8z"/></g><path d="M808.047 1120.04c17.41-34.071 55.664-63.144 89.773-81.23 31.037-15.337 62.832-6.986 40.905 29.717 15.596-6.054 38.359-19.611 55.433-6.627 25.966 22.448-32.186 32.597 9.642 43.315 280.604 108.638-126.676 294.223-33.014 359.382 83.984 52.159 200.728-31.885 243.783-97.323 6.061-8.903 9.83-12.607 5.076-25.032-5.929-25.823-12.535-48.683-9.554-76.12-1.764-19.372 19.069-21.561 30.658-12.001 11.863 11.123 11.984 23.855 20.293 38.729 18.159-39.081 41.99-86.722 27.853-131.849-43.012-108.14-151.892-176.109-242.879-242.679-14.041-11.255-24.073-11.838-42.718-10.342-30.98-1.369-55.826-3.324-87.039-8.949-61.724-8.019-89.935-47.617-15.428-60.214-32.485-27.406-77.214-43.654-104.343-80.514-13.762-17.189-23.638-30.145-35.536-49.739-6.136-4.348-7.468-21.99-16.837-18.52-39.28 16.241-73.043 40.56-117.083 47.552-59.91-27.414 75.146-77.708 92.559-88.003-18.65-27.86-48.686-116.824-48.363-134.308-5.239-188.43 221.617-300.978 352.807-346.267 7.141-3.194 15.327-1.595 18.558-12.226 12.86-24.352 22.551-47.27 39.5-70.894 11.212-19.028 45.026-38.063 53.822-9.099-2.824 24.941-22.114 43.306-31.391 67.378 28.695-7.356 60.379-11.117 91.148-15.263 17.361-22.82 36.458-51.052 62.889-69.067 77.018-64.368 229.538-91.519 235.053-2.796 35.457 17.578 49.399 63.82 28.076 98.114 18.469 10.809 16.438 36.141 8.868 54.19-.624 4.54-6.82 4.266-1.564 9.165 25.107 31.845 14.81 55.936-18.683 68.795 2.452 19.005-20.312 36.371-37.594 45.903-67.721 29.983-139.782-1.583-200.985-33.936-63.545-33.112-53.608-64.015-71.112-61.621-134.71 32.229-279.118 64.363-354.053 166.124 24.73-17.521 74.622-21.819 50.39 18.096-19.436 23.234-83.569 63.192-92.624 54.927-27.711 78.958 4.309 114.527 48.041 161.52 61.582 68.32 139.44 115.178 220.427 157.28 33.68 17.509 73.507 31.409 103.691 55.436 52.613 36.236 90.346 97.1 137.951 140.961 171.707 205.123 30.769 191.378 181.894 154.553 15.785-4.001 31.948 9.276 33.562 24.299-4.429 13.314-19.511 21.572-34.073 27.839-23.356 12.335-55.011 14.137-71.186 30.772.809 70.715-31.685 133.196-70.064 191.782-51.667 66.068-118.307 108.702-197.254 136.587-97.267 43.282-274.962 87.767-331.028-17.792-23.482-52.199-4.658-81.34 24.179-118.835 36.617-51.114 81.519-89.306 97.169-145.883 10.767-115.769-302.515 64.064-327.159 85.2 30.19 1.537 62.253 20.593 38.77 48.302-37.437 19.138-77.648 7.723-118.602 7.939-77.128 43.832-139.81 103.156-207.371 160.724 28.576 1.868 76.794 25.191 84.791 48.339-118.943-80.587-168.28 36.197-276.667-26.11-15.722-4.515-27.472-5.458-45.095-4.665-34.778 2.194-61.279 21.404-87.953 42.943-23.337-2.467 12.157-24.732 18.572-30.522 21.986-17.65 52.971-28.181 83.093-24.51 94.269 28.483 91.618 25.092 168.292-1.892 13.227-3.98 25.474-.121 36.712-11.412 34.23-30.599 69.601-62.018 106.632-91.93 125.75-100.41 264.032-175.089 408.491-244.727 37.796-13.631 78.102-15.582 111.35 6.337 82.359 39.074-55.725 141.858-74.468 183.465-34.01 49.001-46.016 63.809-19.232 117.114 47.032 104.995 300.873 12.403 356.545-22.792 112.869-62.137 182.771-146.028 202.897-258.405 8.59-43.384-58.398-201.96-83.213-237.094-81.533-99.426-212.688-200.497-282.518-222.506-69.266-31.469-129.778-73.409-184.373-125.99-28.435-34.642-60.975-66.504-76.883-108.529-13.944-80.515 34.477-155.199 88.31-210.494 95.505-79.156 214.905-105.675 333.321-127.624-10.745-27.978-16.251-55.851-7.877-85.407-184.07 30.986-473.88 157.461-501.372 349.217-16.03 91.181 84.025 231.542 123.253 266.883 111.549 86.435 244.623 134.781 351.114 229.078 127.433 102.066 192.194 188.264 105.683 327.785-48.23 76.373-113.159 145.213-202.722 171.406-54.481 25.348-168.351-6.125-122.867-79.38 30.375-54.188 80.975-86.364 118.023-135.554 52.182-83.071-10.411-141.375-82.435-157.252-63.903-7.748-124.999 8.932-186.396 26.066-100.169 35.851-184.656 93.278-274.687 149.001-95.644 59.326-188.368 115.496-274.513 188.544-43.177 26.326-114.168 124.106-130.256 101.747 21.591-23.708 46.045-48.194 69.645-72.971 14.514-16.578 33.541-21.427 33.997-45.725 11.26-42.335 32.767-135.722 87.755-100.136 8.724 10.528 1.651 24.42 4.349 38.616 159.459-98.651 312.308-222.245 495.473-278.368zm190.967-225.626c-26.072-17.475-67.986-46.279-96.166-44.412-122.479 13.986 69.582 49.992 96.166 44.412zm-63.369 148.668c-43.026-.523-83.708 43.069-112.033 74.568 75.64-12.885 83.44-22.033 112.033-74.568zM724.306 654.253c-171.197 97.201-106.04 88.433 15.994 22.723a558221.31 558221.31 0 0 0-15.994-22.723zm695.558 530.385c.331 6.408 1.746 39.074 7.862 32.114 30.041-19.855 70.79-20.959 94.776-51.883-31.945-9.342-71.536 10.221-102.638 19.769zM236.736 1458.495c21.366-14.643 55.225-33.952 59.442-61.379 9.171-103.783-56.715 31.728-59.442 61.379zm322.821-58.097c10.366 8.924 136.331 1.416 91.567-19.662-46.528-17.132-59.357-4.501-91.567 19.662zm497.897-1242.632c6.471.551 23.233-2.224 28.267-12.739 12.891-25.605 31.829-44.927 36.533-74.272-33.283 14.823-47.865 56.828-64.799 87.01zM807.819 467.957c29.511-18.645 74.529-37.981 85.283-67.09-32.991 4.154-79.173 39.753-85.283 67.09zm427.405 869.909c27.05-22.209 11.331-57.001-7.966-80.85-4.668 25.991-1.315 54.941 7.966 80.85zm-314.688-240.132c32.146-2.179 54.892-.516 69.794-31.183-19.225-2.668-59.171 18.431-69.794 31.183z"/><path d="m8.506 1638.52-.206-.021c-4.853-.513-7.522-1.885-8.16-4.191-1.637-5.924 11.797-16.018 20.686-22.696 2.48-1.864 4.622-3.473 5.763-4.503 23.58-18.93 54.779-28.136 83.488-24.635 88.041 26.594 91.766 25.267 154.008 3.115 4.38-1.559 9.049-3.221 14.057-4.983 4.518-1.36 8.897-1.815 13.133-2.256 8.259-.86 16.06-1.672 23.391-9.036 35.471-31.71 70.302-62.588 106.672-91.966 133.188-106.35 281.285-183.422 408.588-244.788 30.156-10.88 73.992-18.584 111.842 6.37 14.531 6.889 23.134 16.347 25.508 28.077 6.322 31.235-32.052 74.256-62.886 108.824-16.97 19.024-31.626 35.456-36.91 47.186l-2.669 3.857c-31.807 45.766-42.521 61.183-16.572 112.827 8.994 20.076 26.242 34.073 51.275 41.624 49.915 15.058 119.915 2.045 169.848-11.523 58.408-15.87 111.979-38.721 134.708-53.091 116.8-64.302 183.086-148.713 202.672-258.07 8.625-43.563-58.409-201.719-83.13-236.718-78.55-95.786-210.457-199.687-282.26-222.318-68.329-31.038-128.683-72.281-184.569-126.105-5.831-7.099-11.892-14.154-17.753-20.979-22.887-26.643-46.553-54.192-59.25-87.733-6.427-37.06-.108-75.754 18.755-115.098 15.274-31.857 38.713-64.131 69.665-95.922 94.479-78.31 211.407-105.104 332.997-127.657-12.495-32.758-14.937-58.851-7.889-84.4-103.46 17.532-218.708 60.167-308.451 114.124-78.931 47.457-176.266 126.67-191.731 234.54-16.505 93.883 87.73 234.581 123.092 266.44 50.341 39.005 106.011 70.783 159.849 101.515 65.311 37.281 132.845 75.831 191.263 127.561 52.691 42.201 109.738 93.043 133.201 150.03 22.647 55.007 13.933 111.691-27.425 178.392-26.583 42.094-55.5 77.296-85.952 104.629-35.922 32.243-75.304 54.783-117.054 66.993-17.412 8.108-41.287 10.716-65.434 7.125-24.689-3.67-45.609-13.4-57.396-26.696-10.249-11.561-18.672-31.45-.603-60.553 17.642-31.473 42.607-56.031 66.75-79.782 17.582-17.295 35.762-35.18 51.299-55.809 19.752-31.448 24.308-62.177 13.15-88.828-13.466-32.165-49.09-57.448-95.294-67.634-64.678-7.846-126.432 9.393-186.154 26.059-85.903 30.747-159.1 76.647-236.593 125.242-12.398 7.774-25.219 15.814-37.965 23.703-5.771 3.58-11.533 7.149-17.283 10.711-90.639 56.144-176.252 109.174-257.17 177.789-17.343 10.582-39.06 32.564-60.061 53.824-26.064 26.384-50.713 51.333-64.044 51.336-.267 0-.526-.01-.784-.029-2.529-.197-4.581-1.366-6.097-3.474l-.237-.329.273-.3c14.032-15.408 28.927-30.787 44.697-47.069 8.205-8.471 16.689-17.23 24.955-25.909 4.487-5.125 9.362-9.099 14.076-12.941 10.449-8.516 19.473-15.871 19.784-32.449l.017-.119c.504-1.896 1.03-3.896 1.577-5.98 8.751-33.322 23.398-89.094 52.571-100.402 10.443-4.046 22.002-2.043 34.362 5.955l.114.101c5.48 6.614 4.876 14.487 4.237 22.822-.382 4.979-.776 10.121.09 15.301 39.786-24.633 79.891-51.296 118.686-77.087 117.436-78.071 238.866-158.801 376.076-200.885 21.388-41.654 69.97-70.694 89.887-81.256 18.759-9.271 37.29-9.851 45.076-1.418 4.194 4.542 7.038 13.513-2.771 30.576 2.01-.811 4.126-1.725 6.343-2.682 14.953-6.459 33.562-14.494 48.227-3.345 4.577 3.956 6.904 7.768 7.138 11.671.344 5.733-3.936 10.437-7.712 14.586-3.172 3.486-5.912 6.498-5.107 9.187.852 2.847 5.806 5.394 15.145 7.786 58.594 22.682 90.887 49.787 98.78 82.885 12.371 51.876-38.671 108.544-83.704 158.541-33.292 36.96-64.736 71.871-61.841 96.961.961 8.334 5.512 15.226 13.912 21.069 84.666 52.577 201.48-33.962 243.079-97.188.506-.743.992-1.444 1.458-2.117 5.217-7.529 7.836-11.309 3.569-22.462-.697-3.015-1.382-5.924-2.062-8.806-5.231-22.194-10.172-43.157-7.522-67.547-.683-7.39 1.959-13.107 7.438-16.002 6.919-3.655 17.026-2.112 24.034 3.669 7.529 7.059 10.433 14.852 13.507 23.103 1.776 4.769 3.61 9.691 6.432 14.907l1.988-4.267c17.325-37.137 38.887-83.354 25.425-126.328-37.969-95.458-125.692-158.366-210.527-219.202-10.64-7.63-21.642-15.52-32.17-23.223-13.953-11.183-24.095-11.714-42.383-10.247-30.658-1.351-55.901-3.32-87.168-8.955-34.182-4.44-60.195-19.235-60.486-34.411-.135-7.071 5.432-19.87 43.999-26.604-11.908-9.912-25.697-18.563-39.042-26.934-23.349-14.646-47.492-29.79-64.555-52.975-14.619-18.258-24.137-30.973-35.508-49.689-2.401-1.759-4.083-5.435-5.71-8.99-2.681-5.858-5.216-11.39-10.579-9.406-12.748 5.271-25.122 11.501-37.088 17.524-24.732 12.45-50.305 25.323-80.09 30.053l-.149.023-.137-.063c-10.299-4.713-15.519-10.455-15.516-17.068.011-22.126 58.748-48.931 90.302-63.331 7.847-3.581 14.125-6.446 17.27-8.226-19.168-29.088-48.466-117.141-48.152-134.149-2.309-83.041 39.893-159.488 125.432-227.194 79.789-63.154 176.916-102.001 227.711-119.536 1.945-.872 4.003-1.395 5.993-1.9 5.356-1.361 9.982-2.536 12.25-9.998 3.403-6.462 6.59-12.815 9.673-18.959 8.932-17.801 17.368-34.613 29.899-52.08 7.457-12.659 25.317-25.674 39.017-24.035 7.542.9 12.967 6.115 15.69 15.082l.03.099-.012.104c-1.714 15.144-9.298 27.62-17.327 40.83-4.963 8.164-10.089 16.599-13.74 25.766 25.237-6.386 52.981-10.072 79.823-13.64 3.418-.455 6.831-.908 10.232-1.366 2.276-2.995 4.583-6.082 6.933-9.226 15.457-20.686 32.977-44.13 55.947-59.786 26.994-22.563 64.358-41.342 102.474-51.492 39.651-10.56 74.797-10.649 98.964-.253 21.272 9.151 32.837 25.651 34.377 49.042 17.133 8.588 30.046 24.387 35.451 43.391 5.33 18.737 2.717 38.704-7.165 54.874 17.321 10.545 16.867 34.884 8.662 54.494-.281 1.882-1.438 3.001-2.37 3.902-.718.695-1.284 1.243-1.278 1.91.007.709.642 1.642 1.939 2.852 11.995 15.206 16.369 29.006 13.052 41.073-3.257 11.846-14.157 21.666-31.533 28.414 2.387 21.339-25.665 39.269-37.896 46.015-65.652 29.067-135.623.87-201.459-33.932-38.388-20.003-50.095-39.288-57.09-50.811-4.566-7.521-7.079-11.659-13.72-10.757l-10.958 2.621c-131.673 31.438-267.796 63.942-341.019 160.969 16.421-10.43 41.975-15.703 51.579-6.757 3.957 3.687 6.665 11.389-2.905 27.151-17.941 21.455-70.748 55.059-88.33 56.241-1.921.13-3.42-.128-4.473-.769-27.503 79.069 5.9 114.963 48.159 160.374 63.588 70.546 143.455 117.232 220.291 157.178 10.316 5.362 21.459 10.502 32.235 15.472 24.856 11.464 50.56 23.317 71.537 40.016 31.356 21.595 57.842 52.409 83.456 82.209 17.348 20.184 35.287 41.054 54.522 58.775 79.161 94.561 92.016 142.854 97.505 163.477 1.878 7.054 2.912 10.939 5.374 12.259 2.956 1.583 8.292-.223 19.988-4.185 11.923-4.037 29.941-10.14 58.57-17.115 7.192-1.826 14.839-.267 21.523 4.384 7.084 4.927 11.814 12.533 12.654 20.347l.012.108-.034.104c-4.596 13.815-20.771 22.295-34.35 28.14-9.362 4.946-20.151 8.229-30.586 11.402-15.778 4.8-30.686 9.334-40.297 19.112.775 73.519-35.021 138.233-70.147 191.854-48.735 62.323-113.333 107.055-197.506 136.785-28.656 12.753-103.745 42.888-181.104 46.947-34.439 1.802-64.236-2.01-88.571-11.345-27.896-10.701-48.742-28.745-61.96-53.632-23.208-51.587-5.476-80.757 24.224-119.374 10.954-15.29 22.715-29.505 34.09-43.252 26.769-32.352 52.054-62.909 62.994-102.459 1.491-16.112-3.424-27.264-14.623-33.056-32.528-16.82-110.921 12.864-170.957 40.731-64.516 29.946-126.371 66.563-139.796 77.233 17.455 1.187 38.428 8.643 44.462 22.585 3.498 8.082 1.211 17.233-6.612 26.465l-.154.122c-27.153 13.881-55.215 11.805-84.923 9.603-11.037-.817-22.44-1.639-33.772-1.609-63.454 36.079-116.104 81.763-171.84 130.126-11.228 9.742-22.827 19.807-34.417 29.691 14.027 1.189 32.696 7.317 49.102 16.156 18.515 9.977 31.241 21.795 34.914 32.427l.49 1.42-1.244-.843c-62.341-42.238-105.97-29.955-148.163-18.08-37.787 10.637-76.864 21.633-128.419-7.979-14.981-4.297-26.315-5.469-44.876-4.63-34.679 2.188-61.255 21.51-87.662 42.833l-.161.13zm89.383-55.789c-24.852 0-50.555 9.005-70.651 25.138-1.152 1.042-3.208 2.586-5.81 4.541-8.146 6.12-21.778 16.363-20.323 21.631.5 1.811 2.887 2.968 7.096 3.441 26.485-21.378 53.163-40.72 88.074-42.923 18.718-.843 30.137.339 45.264 4.684l.111.047c51.222 29.446 88.372 18.987 127.703 7.915 42.114-11.857 85.657-24.109 147.681 17.329-9.11-21.571-54.813-44.646-83.79-46.541l-1.229-.08.938-.8c11.894-10.134 23.81-20.474 35.333-30.474 55.81-48.426 108.523-94.165 172.115-130.304l.114-.064h.131c11.404-.06 22.883.789 33.982 1.61 29.531 2.187 57.428 4.253 84.305-9.45 7.617-9.021 9.767-17.548 6.393-25.345-6.013-13.893-27.475-21.174-44.871-22.06l-1.25-.063.95-.815c11.114-9.531 74.674-47.396 141.002-78.185 60.238-27.961 138.95-57.724 171.837-40.713 11.597 5.998 16.692 17.479 15.144 34.123-11.013 39.844-36.364 70.481-63.203 102.918-11.364 13.733-23.114 27.935-34.058 43.21-29.489 38.345-47.094 67.288-24.129 118.339 24.774 46.643 75.106 68.33 149.582 64.417 77.193-4.05 152.145-34.132 180.787-46.877 84.025-29.68 148.474-74.305 197.063-136.438 35.053-53.511 70.797-118.135 69.958-191.468l-.002-.206.144-.148c9.786-10.064 24.883-14.657 40.866-19.519 10.39-3.16 21.132-6.429 30.445-11.348 13.389-5.764 29.28-14.073 33.798-27.451-.842-7.492-5.402-14.784-12.219-19.525-6.444-4.481-13.802-5.984-20.712-4.234-28.591 6.967-46.584 13.061-58.491 17.093-11.977 4.057-17.442 5.909-20.782 4.118-2.843-1.523-3.917-5.559-5.867-12.883-5.473-20.558-18.288-68.701-97.261-163.044-19.233-17.715-37.191-38.607-54.558-58.813-25.573-29.752-52.016-60.517-83.293-82.058-20.91-16.644-46.558-28.473-71.36-39.911-10.787-4.976-21.941-10.119-32.277-15.493-76.919-39.987-156.878-86.731-220.568-157.389-42.598-45.775-76.248-81.936-48.141-162.021l.25-.714.558.51c.838.765 2.288 1.083 4.317.946 17.007-1.145 70.213-35.057 87.586-55.825 7.254-11.96 8.319-20.916 3.035-25.838-9.49-8.844-36.939-2.731-52.752 8.472l-2.531 1.793 1.839-2.497c73.007-99.143 210.433-131.954 343.333-163.685l11.006-2.63c7.34-.998 10.131 3.596 14.759 11.22 6.941 11.433 18.558 30.568 56.7 50.443 65.618 34.686 135.326 62.8 200.552 33.923 9.421-5.199 40.072-23.895 37.3-45.383l-.05-.39.366-.141c17.279-6.634 28.1-16.276 31.291-27.886 3.229-11.745-1.085-25.247-12.82-40.133-1.5-1.39-2.196-2.492-2.206-3.518-.01-1.097.764-1.846 1.583-2.639.875-.847 1.867-1.807 2.085-3.387l.034-.125c8.128-19.383 8.603-43.462-8.66-53.565l-.443-.26.271-.436c9.952-16.006 12.62-35.872 7.319-54.505-5.355-18.83-18.183-34.466-35.191-42.897l-.26-.129-.018-.288c-1.438-23.137-12.808-39.446-33.793-48.474-23.962-10.31-58.876-10.201-98.312.3-37.98 10.114-75.205 28.821-102.129 51.323-22.872 15.592-40.338 38.966-55.749 59.588-2.395 3.204-4.744 6.349-7.063 9.397l-.125.165-.206.027c-3.47.468-6.952.931-10.439 1.395-27.148 3.608-55.221 7.339-80.652 13.858l-.939.241.349-.905c3.701-9.603 9.024-18.361 14.173-26.831 7.952-13.082 15.463-25.441 17.177-40.32-2.644-8.618-7.63-13.423-14.822-14.281-13.311-1.598-30.737 11.156-38.061 23.587-12.51 17.44-20.929 34.22-29.842 51.983-3.085 6.148-6.275 12.506-9.646 18.89-2.396 7.913-7.51 9.213-12.924 10.588-1.949.495-3.964 1.008-5.873 1.86C973.461 187 876.451 225.798 796.779 288.861c-85.28 67.5-127.354 143.674-125.053 226.405-.314 17.031 29.185 105.52 48.278 134.043l.294.439-.455.27c-3.01 1.779-9.545 4.762-17.82 8.538-31.351 14.307-89.706 40.938-89.717 62.422-.003 6.157 4.975 11.572 14.795 16.095 29.567-4.725 55.027-17.54 79.648-29.935 11.983-6.032 24.374-12.27 37.173-17.562 6.251-2.318 9.1 3.904 11.853 9.921 1.591 3.478 3.237 7.074 5.464 8.652l.138.148c11.366 18.717 20.872 31.418 35.499 49.687 16.963 23.047 41.024 38.14 64.293 52.736 13.684 8.583 27.834 17.459 39.981 27.708l.824.695-1.063.18c-28.332 4.79-44.453 14.188-44.231 25.782.281 14.686 25.92 29.063 59.64 33.442 31.235 5.629 56.442 7.596 86.997 8.945 18.494-1.488 28.794-.942 43.009 10.451 10.506 7.687 21.506 15.575 32.145 23.204 41.671 29.883 84.762 60.784 122.319 96.267 42.559 40.208 71.529 80.576 88.567 123.414 13.591 43.379-8.062 89.792-25.46 127.085l-2.816 6.048-.478-.854c-3.13-5.604-5.082-10.842-6.969-15.908-3.164-8.49-5.896-15.823-13.23-22.7-6.685-5.515-16.329-7.011-22.907-3.535-5.1 2.693-7.554 8.065-6.911 15.126-2.632 24.318 2.29 45.2 7.5 67.31.68 2.883 1.366 5.794 2.043 8.743 4.436 11.58 1.545 15.751-3.702 23.322-.465.671-.949 1.37-1.449 2.104-23.437 35.622-65.333 72.101-106.731 92.926-21.83 10.981-49.732 21.01-78.803 21.012-19.61 0-39.749-4.562-58.925-16.471-8.671-6.031-13.36-13.154-14.356-21.79-2.947-25.538 27.192-58.999 62.091-97.745 44.868-49.813 95.723-106.274 83.475-157.639-7.811-32.754-39.903-59.631-98.112-82.167-9.92-2.538-14.81-5.149-15.798-8.449-.967-3.23 1.949-6.436 5.326-10.146 3.643-4.003 7.772-8.541 7.454-13.854-.217-3.62-2.431-7.203-6.77-10.954-14.174-10.774-32.486-2.869-47.2 3.486-2.727 1.178-5.302 2.29-7.724 3.229l-1.356.526.746-1.249c8.087-13.537 9.377-24.419 3.631-30.642-7.488-8.107-25.534-7.438-43.885 1.63-19.851 10.526-68.341 39.506-89.549 81.01l-.096.188-.203.063c-137.153 42.024-258.584 122.753-376.018 200.823-39.003 25.93-79.335 52.743-119.339 77.492l-.619.382-.136-.714c-1.055-5.554-.637-11.008-.233-16.283.622-8.103 1.208-15.758-3.961-22.049-12.052-7.781-23.287-9.74-33.393-5.82-28.697 11.124-43.263 66.586-51.965 99.724-.542 2.065-1.063 4.046-1.562 5.926-.341 16.997-9.522 24.481-20.151 33.145-4.682 3.816-9.523 7.763-13.969 12.84-8.283 8.697-16.769 17.458-24.974 25.931-15.66 16.169-30.458 31.447-44.397 46.741 1.32 1.676 2.999 2.572 5.12 2.738 12.665.98 37.622-24.271 64.039-51.013 21.043-21.302 42.804-43.329 60.188-53.929 80.912-68.618 166.555-121.668 257.227-177.832 5.75-3.562 11.511-7.13 17.283-10.71 12.745-7.888 25.563-15.927 37.961-23.7 77.541-48.625 150.782-94.553 236.822-125.348 59.85-16.703 121.702-33.963 186.625-26.091 46.569 10.263 82.457 35.768 96.048 68.232 11.289 26.965 6.707 58.01-13.25 89.78-15.606 20.724-33.813 38.634-51.42 55.955-24.093 23.701-49.007 48.21-66.59 79.577-14.057 22.641-13.883 43.168.49 59.382 11.634 13.123 32.334 22.734 56.794 26.37 23.606 3.51 47.88.866 64.935-7.068 77.923-22.796 144.142-78.793 202.51-171.22 41.171-66.399 49.862-122.797 27.348-177.48-23.376-56.777-80.31-107.509-132.92-149.646-58.359-51.677-125.848-90.201-191.114-127.457-53.867-30.749-109.569-62.545-159.994-101.616-20.349-18.331-55.196-62.898-82.48-112.656-23.544-42.938-49.763-104.633-40.958-154.709 15.519-108.242 113.087-187.67 192.204-235.238 90.07-54.154 205.8-96.915 309.577-114.385l.78-.131-.216.761c-7.286 25.716-4.861 51.959 7.863 85.091l.216.561-.591.109c-121.664 22.552-238.688 49.273-333.092 127.518-48.201 49.513-102.657 126.178-88.137 210.024 12.61 33.285 36.218 60.767 59.048 87.344 5.865 6.827 11.93 13.888 17.729 20.952 55.763 53.702 116.026 94.882 184.193 125.852 33.799 10.649 83.744 40.648 136.972 82.283 55.077 43.082 106.831 92.93 145.726 140.361 24.803 35.112 91.98 193.757 83.318 237.509-9.883 55.182-32.348 105.066-66.77 148.257-33.365 41.864-79.249 79.038-136.377 110.488-22.767 14.395-76.451 37.299-134.955 53.195-50.059 13.603-120.256 26.642-170.399 11.517-25.323-7.639-42.782-21.82-51.89-42.153-26.207-52.155-15.406-67.696 16.654-113.827l2.624-3.776c5.302-11.79 20.006-28.274 37.031-47.361 30.686-34.401 68.875-77.215 62.651-107.96-2.309-11.405-10.726-20.626-25.018-27.406-37.564-24.76-81.072-17.1-110.965-6.318-127.206 61.322-275.241 138.361-408.349 244.646-36.349 29.362-71.17 60.23-106.61 91.912-7.561 7.597-15.534 8.427-23.975 9.305-4.189.436-8.521.887-12.926 2.212-4.985 1.755-9.653 3.417-14.032 4.975-62.536 22.257-66.279 23.59-154.549-3.082a99.468 99.468 0 0 0-11.984-.717zm138.252-123.223.097-1.06c.993-10.794 10.2-35.538 21.892-58.836 6.412-12.776 22.365-42.428 32.286-41.502 6.393.576 8.5 13.715 6.261 39.049-3.766 24.501-30.4 42.227-51.801 56.47a713.713 713.713 0 0 0-7.856 5.277l-.878.602zm53.825-100.418c-6.509 0-18.023 15.227-30.943 40.971-11.082 22.082-20.209 46.33-21.668 57.405a827.618 827.618 0 0 1 6.966-4.67c21.237-14.134 47.667-31.724 51.362-55.757 2.712-30.702-1.417-37.577-5.358-37.933a3.87 3.87 0 0 0-.359-.017zm299.086 45.522c-14.795 0-26.818-1.25-29.821-3.836l-.471-.406.497-.373c1.716-1.286 3.376-2.541 4.99-3.759 28.46-21.497 42.745-32.286 87.05-15.972 6.704 3.154 9.933 6.109 9.913 9.052-.016 2.35-2.174 4.519-6.416 6.447-12.738 5.79-42.62 8.847-65.742 8.847zm-28.653-4.222c9.517 5.846 74.377 3.378 93.98-5.535 3.855-1.753 5.817-3.618 5.83-5.544.017-2.442-3.199-5.252-9.299-8.124-43.754-16.106-57.011-6.094-86.062 15.849-1.443 1.09-2.925 2.209-4.45 3.354zm674.593-61.688-.239-.668c-9.688-27.045-12.524-55.85-7.987-81.107l.193-1.076.688.85c7.95 9.824 18.126 24.957 21.464 41.254 3.392 16.562-1.173 30.119-13.569 40.298l-.549.45zm-7.432-80.513c-4.198 24.616-1.405 52.534 7.894 78.833 11.673-9.872 15.938-22.945 12.677-38.867-3.202-15.634-12.803-30.218-20.571-39.966zm198.547-39.969c-.196 0-.392-.034-.586-.102-3.104-1.082-5.049-11.474-6.119-32.704l-.058-1.142.373-.114c6.553-2.012 13.401-4.44 20.652-7.011 26.677-9.457 56.913-20.179 82.273-12.76l.704.206-.449.58c-14.799 19.078-36.218 26.977-56.933 34.614-12.956 4.777-26.353 9.718-37.909 17.344-.651.724-1.304 1.088-1.948 1.088zm-5.725-33.221.019.364c1.334 26.491 3.987 31.301 5.449 31.811.424.148.931-.105 1.5-.754l.1-.087c11.666-7.71 25.139-12.679 38.169-17.483 20.368-7.51 41.423-15.273 56.03-33.705-24.901-6.922-54.663 3.628-80.946 12.945-7.124 2.526-13.86 4.914-20.32 6.909zm-598.104-66.617.961-1.068c25.172-27.993 67.208-74.739 111.644-74.739.256 0 .51.002.767.005l.83.01-.397.729c-28.106 51.642-35.819 61.778-112.388 74.822zm112.527-74.808c-43.404.056-84.715 45.382-109.861 73.338 34.759-5.964 56.623-11.32 72.04-22.09 15.099-10.549 24.277-26.381 37.821-51.248zm-15.403 54.735.748-.898c10.734-12.886 51.019-34.018 70.247-31.357l.682.095-.301.619c-13.67 28.132-33.794 29.308-61.648 30.935-2.776.163-5.63.329-8.562.528l-1.166.079zm67.348-31.492c-19.482 0-54.082 18.303-65.047 30.335 2.514-.164 4.97-.308 7.369-.448 27.304-1.595 47.088-2.749 60.498-29.744a26.557 26.557 0 0 0-2.819-.143zm4.005-171.298c-31.41 0-116.091-15.811-127.454-29.316-1.372-1.631-1.758-3.233-1.148-4.766 2.046-5.142 15.338-9.046 40.636-11.935 27.479-1.801 67.514 25.04 94 42.815l3.488 2.339-1.162.244c-2.003.421-4.85.618-8.36.618zm-85.22-45.106c-.898 0-1.783.028-2.656.086-30.557 3.49-38.51 8.076-39.797 11.309-.469 1.179-.147 2.406.985 3.751 12.277 14.594 111.203 31.862 133.635 28.576l-1.471-.986c-25.524-17.13-63.677-42.735-90.696-42.735zm-281.608-123.14c-2.06 0-3.383-.44-3.889-1.355-3.489-6.308 34.426-32.588 104.021-72.102l.395-.225 16.58 23.556-.497.268c-55.43 29.847-102.728 49.858-116.609 49.858zm100.23-72.363c-103.017 58.515-104.08 69.013-103.245 70.524.358.647 1.351.966 2.927.966 11.921.002 57.316-18.184 115.726-49.599l-15.409-21.892zm82.91-185.89.263-1.175c6.092-27.256 51.75-63.201 85.708-67.477l.817-.103-.285.771c-8.476 22.941-38.258 39.962-64.535 54.979-7.474 4.271-14.534 8.307-20.95 12.36l-1.018.643zm85.267-67.549c-15.387 2.173-34.616 11.335-51.647 24.639-16.908 13.206-28.797 28.341-32.091 40.765 6.152-3.844 12.862-7.679 19.943-11.726 25.827-14.761 55.061-31.468 63.795-53.678zm166.934-243.137c-.668 0-1.292-.024-1.859-.073l-.773-.065.38-.677c3.453-6.155 6.755-12.696 10.25-19.621 13.187-26.124 28.133-55.733 54.782-67.602l.843-.375-.146.911c-3.18 19.835-12.664 34.853-22.705 50.751-4.751 7.523-9.664 15.303-13.875 23.666-4.578 9.563-18.956 13.085-26.897 13.085zm-.993-1.02c7.412.32 22.4-2.915 26.992-12.506 4.237-8.416 9.164-16.216 13.927-23.759 9.828-15.562 19.119-30.274 22.41-49.453-25.795 11.972-40.476 41.057-53.446 66.752-3.37 6.676-6.56 12.995-9.884 18.966z"/><path d="M1187.939 195.122a1050.384 1050.384 0 0 0 60.851-19.969 1058.78 1058.78 0 0 0 117.14-50.651 1053.08 1053.08 0 0 0 56.007-30.512 1047.073 1047.073 0 0 0 60.851-38.448c1.574-1.072.087-3.652-1.502-2.57-17.577 11.966-35.513 23.402-53.784 34.279s-36.871 21.198-55.767 30.948a1055.119 1055.119 0 0 1-57.296 27.41 1046.852 1046.852 0 0 1-59.232 24.034 1046.14 1046.14 0 0 1-68.057 22.61c-1.833.54-1.053 3.414.791 2.87z" fill="#fff"/><path d="M1206.272 190.604c18.132-2.551 36.517-3.653 54.822-3.682 18.701-.029 37.779.891 56.039 5.209 10.505 2.484 20.641 6.44 30.769 10.119 11.405 4.142 22.892 7.747 34.577 11.008 11.621 3.243 22.952 6.981 33.879 12.137 10.546 4.975 20.679 10.78 30.694 16.736a756.227 756.227 0 0 1 66.768 44.673c1.534 1.148 3.02-1.435 1.502-2.57a759.21 759.21 0 0 0-59.758-40.453c-20.239-12.335-40.895-24.084-63.714-30.929-11.794-3.538-23.692-6.571-35.318-10.66-11.122-3.911-22.108-8.353-33.454-11.591-17.722-5.058-36.587-6.299-54.929-6.603-18.913-.314-37.906.637-56.682 2.945-1.998.246-3.993.51-5.986.79-1.889.266-1.085 3.134.791 2.87z" fill="#fff"/><path d="M1369.805 124.074c16.855-.381 33.656 2.136 49.8 6.937a186.261 186.261 0 0 1 23.86 8.92c7.382 3.35 14.689 7.072 21.49 11.498 6.45 4.198 12.518 9.302 16.664 15.866 3.889 6.156 5.936 13.892 4.609 21.142-.657 3.589-2.122 6.995-4.443 9.828-2.436 2.973-5.524 5.307-8.761 7.342-5.889 3.702-12.336 6.292-19.016 8.18-13.905 3.93-28.687 5.203-43.092 4.389a124.45 124.45 0 0 1-4.884-.374c-1.906-.183-1.893 2.795 0 2.977 14.835 1.424 30.157.426 44.655-3.05 7.008-1.68 13.942-4.025 20.292-7.469 6.716-3.643 13.408-8.499 16.504-15.729 3.007-7.022 2.589-15.161-.077-22.223-2.822-7.476-8.127-13.679-14.299-18.642-6.432-5.173-13.697-9.218-21.051-12.915a196.034 196.034 0 0 0-24.162-10.203c-16.585-5.716-34.048-9.115-51.607-9.464a152.298 152.298 0 0 0-6.483.013c-1.912.043-1.919 3.02 0 2.977z" fill="#fff"/></svg></g><g transform="translate(385.5 192.0) rotate(0.0 731.25 638.25) scale(1.499358735802226 1.4997286037544322)"><svg width="975.417" height="851.154" viewBox="0 0 975.417 851.154"><g fill="#fff"><path d="M574.714 339.598c-41.347-50.184-56.733-116.779-66.109-181.053 9.938 1.604 21.591 12.735 33.863 7.715 7.324-7.356-8.288-30.316 9.538-28.592 67.996-2.428 137.015 12.056 198.241 42.181 36.396 7.708 214.757 151.2 137.189 156.579-46.461-13.653-78.081-51.668-119.716-76.676-28.87-20.345-57.925-30.417-92.026-40.071-76.067-31.121 20.227 77.735-100.979 119.916zm-39.582-117.819c-5.351-3.59-10.047 9.016-.438 7.139 1.625-1.349 1.935-3.604.438-7.139zm32.071 90.616c-.298 2.357.509 10.302 5.762 5.515 2.715-2.956-.872-5.488-5.762-5.515zm-41.928-117.448c5.184-3.277-3.312-11.513-4.943-2.831.168 1.322.811 2.889 4.943 2.831zm33.119 96.349c-1.909-3.926-11.904-3.329-4.172 3.003.433-.028.916-.215 4.172-3.003zm-17.923-27.324c1.939-.241 8.624-4.606.932-5.345-1.653.396-2.904 1.61-.932 5.345zm-82.193-110.069c-17.048 35.351-1.055 67.537-9.84 85.374-40.576 14.358-79.566 22.193-123.153 26.186-52.71 9.156-236.138 9.197-201.694-61.705 3.915-7.94 9.531-11.6 17.706-14.369 41.984-5.587 85.178 4.201 128.158 2.87 64.559 2.914 126.525-18.569 188.824-38.356z"/><path d="M504.178 169.769c7.011 59.614 22.031 125.053 62.741 173.11-5.859 4.762-34.397 11.594-39.459 7.735-29.662-29.235-53.207-71.8-64.613-114.466-13.53-39.635 5.697-144.308 25.036-58.683 3.738 12.979 10.988-3.451 16.295-7.696z"/><path d="M444.895 36.685c63.878 65.248 78.143 15.55 88.831 40.805 1.43 5.284.501 10.506-3.749 15.577-14.563 10.735 1.223 27.419 1.945 43.258-5.244 11.684-30.097 22.63-41.565 15.932-4.749-4.205-3.739-13.257-10.19-17.141-4.768-4.466-14.911-.919-20.59-3.872-8.092-12.607-1.133-21.516-22.344-30.846-1.197-2.386-.055-4.557 2.559-8.73 12.643-14.962-3.249-36.339 5.102-54.983zm473.971 305.771c3.816 19.256 36.415 23.612 40.571 43.799-13.6 1.583-61.951-58.117-55.587-21.085-.92 9.056 5.773 17.664-1.215 26.254-25.575-65.511 10.044-41.889 8.409-78.929 20.408 12.518 46.041 22.445 58.599 41.416-16.416-2.104-28.769-21.491-46.648-22.621 13.182 14.572 39.457 24.044 46.118 45.309-17.567-7.566-31.149-25.201-50.247-34.143zM83.783 179.697c3.209-3.31 7.716-5.534 5.323-11.707-8.524 5.52-16.359 13.377-27.73 19.185-27.273.91 34.738-42.09 53.697-22.818 5.411 5.126 29.841 11.234 20.696 16.865-17.325 9.458-26.955 27.47-18.962 48.018l-36.021-11.247c24.747-10.553 31.415-21.922 2.996-38.296zM5.299 140.38c22.578-2.846 46.789 9.859 70.756 15.028-6.168 7.175-13.47 12.288-25.258 5.563-15.178-7.841-36.428-9.389-45.498-20.591z"/><path d="M99.207 200.71c-11.273-.561-20.872-4.414-31.262-8.163 12.295-16.873 22.406-5.447 31.262 8.163zm437.167-58.047v20.574l-23.133-8.604 23.133-11.97zm-495.68 43.015c14.783 12.101 33.134 15.449 51.509 22.971-13.271 4.618-46.273-10.104-51.509-22.971zm5.648-18.4 9.488 3.424c-2.84 22.239-20.445 8.751-9.488-3.424zm455.743-9.474-7.304 14.773c-6.104-4-4.619-10.968-8.058-16.274l15.363 1.501z"/></g><path d="M454.789 248.349c-97.741 36.398-290.757 53.968-336.549-14.177-31.612-8.545-99.043-18.936-77.483-64.513 3.525-9.528-28.771-14.433-36.913-21.047-7.687-7.961-1.44-17.658 11.796-16.319 23.939 3.676 42.742 10.212 65.669 20.835 31.859-7.177 43.676 12.27 68.802 24.54 203.818 9.023 202.424-2.701 326.325-36.335-10.632-15.748-26.279 7.179-31.647-27.945-24.553-22.207-8.094-12.376-8.878-37.374-28.268-64.527 76.847-102.906 110.822-52.012 19.767 54.363 58.158 34.201 82.456 66.355 7.968 11.306 13.678 22.174 14.243 37.193.983 8.166-.333 7.881 3.598 8.733-3.742-6.53-3.693-4.967-3.932-.853 40.011 8.127 72.72 16.301 106.236 32.916 66.256 32.148 126.831 76.029 161.774 140.821 16.193 4.049 89.512 43.881 54.312 49.985 6.895 7.102 18.336 24.765-2.004 24.686-2.485 4.336-7.891 8.114-13.939 6.402-15.098-6.71-24.153-19.293-38.72-27.09 2.18 12.887 4.979 45.016-17.911 30.971-7.586-12.765-4.793-35.609-10.424-49.577-45.701-13.14-76.368-47.75-115.508-73.853-36.103-25.588-71.696-38.209-114.357-48.856-1.579 20.744 3.759 42.864-2.83 64.773 22.172 7.436 45.534 15.386 67.061 27.947 201.241 106.339 121.889 209.791-65.466 213.692 15.556 38.475 40.784 76.337 52.889 117.769 6.857 45.053 25.972 82.581 37.899 125.744.334 17.486-28.57 34.501-32.865 7.028-21.291 17.134-33.726 44.502-59.298 58.895-105.31 56.287 25.814-87.262 2.361-114.32-38.755-34.672-52.937-85.386-73.574-132.111-45.72-105.129-45.441-155.567-63.528-238.303-30.526-30.291-47.327-64.641-60.417-104.603zm119.925 91.249c130.428-50.713 13.416-155.296 113.091-116.268 33.265 8.851 64.651 24.359 93.52 45.689 38.018 24.344 65.688 57.43 109.749 68.109 69.768-19.37-122.557-157.467-144.549-159.079-63.883-30.305-131.494-43.829-202.688-39.66-1.6 7.568 3.718 22.075-2.972 28.901-10.692 2.55-19.566-5.477-32.26-8.745 7.34 61.371 30.307 141.474 66.109 181.053zM458.279 153.903c-64.526 20.89-131.096 43.126-201.711 38.066-44.83 3.393-159.992-30.166-132.679 44.158 41.98 44.013 165.229 33.872 201.396 29.339 191.238-27.932 98.179-19.295 132.994-111.562zm45.9 15.866c-9.226 9.152-13.677 22.478-18.987-.795-20.017-77.1-33.447 44.091-23.305 63.165 11.034 45.258 33.897 85.926 65.573 118.475 7.253 3.253 28.083-.953 39.459-7.736-40.179-47.276-55.588-112.278-62.741-173.11zM444.896 36.685c-7.088 14.362 3.861 32.974-1.609 49.491-2.471 5.427-9.427 10.903-4.783 15.837 22.589 6.847 10.502 21.219 24.109 30.423 7.287.274 14.574-.505 19.367 4.133 5.734 4.837 3.967 15.84 12.305 17.59 13.138 1.61 42.874-9.108 36.228-24.088-19.111-47.605 13.495-30.703.827-57.709-1.805-2.263-3.982-3.267-7.942-2.915-31.234 10.663-56.774-11.512-78.502-32.761zm254.933 390.283c-57.23-47.654-92.437-36.458-70.233 37.299 23.747-10.183 57.316-9.679 70.233-37.299zm219.038-84.512c18.024 8.103 30.844 25.37 50.247 34.143-6.408-20.402-31.136-29.676-46.118-45.309 16.171.315 28.905 19.458 46.648 22.621-11.873-18.726-37.957-28.594-58.599-41.416.436 14.496-6.144 26.583-18.786 32.532 3.581 14.583 2.373 32.27 10.377 46.397 5.273-6.004 2.208-12.034 1.452-22.114-7.966-45.655 37.457 17.005 55.349 16.945.485-15.999-37.83-25.46-40.571-43.799zM83.783 179.697c24.681 14.748 25.879 26.303-2.996 38.296l36.021 11.247c-10.204-27.902 6.853-36.37 21.09-51.784-66.092-55.434-120.404 50.34-48.792-9.466 2.393 6.173-2.114 8.397-5.323 11.707zM5.299 140.38c4.36 8.535 26.815 11.894 37.737 17.686 14.81 5.653 20.599 11.254 33.019-2.658-22.285-4.317-45.935-17.842-70.756-15.028zm93.908 60.329c-7.479-12.193-19.081-25.321-31.262-8.163 10.389 3.749 19.988 7.602 31.262 8.163zm437.167-58.047-23.133 11.97 23.133 8.604zm-495.68 43.016c5.236 12.867 38.239 27.589 51.509 22.971-15.295-6.588-36.652-10.674-51.509-22.971zm5.647-18.4c-11.051 12.553 6.902 25.16 9.488 3.424l-9.488-3.424zm455.743-9.474-15.363-1.501c3.44 5.305 1.955 12.274 8.058 16.274l7.304-14.773z"/><path d="M615.812 851.168c-2.673 0-4.647-.67-5.967-1.997-6.706-6.741 5.273-28.864 19.143-54.479 15.225-28.12 32.482-59.991 22.942-70.998-30.807-27.556-46.383-65.919-61.447-103.019-3.911-9.632-7.955-19.592-12.207-29.218-33.956-78.08-42.379-125.02-52.132-179.371-3.318-18.495-6.75-37.618-11.396-58.883-27.065-26.892-45.111-58.086-60.272-104.205-51.338 19.024-124.837 31.564-187.439 31.966-75.609.477-128.549-15.979-149.107-46.357-3.391-.914-7.208-1.854-11.245-2.849-24.742-6.094-58.628-14.439-68.077-34.316-3.84-8.078-3.269-17.498 1.697-27.996.335-.91.296-1.816-.135-2.731-1.967-4.175-11.798-7.606-20.471-10.635-6.724-2.348-13.075-4.564-16.17-7.079-3.409-3.524-4.406-7.688-2.712-11.179 2.148-4.428 7.847-6.745 14.874-6.025 22.313 3.425 40.734 9.262 65.675 20.807 22.826-5.084 35.377 3.352 49.903 13.12 5.818 3.912 11.834 7.957 18.968 11.45 172.772 7.646 196.986.646 277.223-22.537 13.922-4.023 29.679-8.575 48.158-13.599-4.02-5.511-8.768-5.621-13.365-5.729-7.524-.175-14.633-.341-17.931-21.669-14.948-13.53-14.893-15.214-12.189-20.87 1.501-3.142 3.556-7.441 3.282-16.645-13.67-31.319 4.008-54.82 25.125-66.377 27.822-15.229 67.824-14.161 86.608 13.977l.054.106c11.503 31.636 29.575 37.932 47.051 44.02 12.381 4.313 25.184 8.773 35.334 22.204 8.205 11.643 13.779 22.464 14.344 37.478.197 1.624.302 2.938.375 3.975.59.368 1.407 1.492 3.013 4.277 40.678 8.385 70.832 16.546 102.237 32.114 78.226 37.956 131.186 84.031 161.888 140.839 14.075 3.664 64.417 30.413 63.919 43.985-.121 3.313-3.131 5.583-8.95 6.754 4.354 4.709 10.978 14.089 8.452 20.027-1.353 3.183-5.109 4.809-11.165 4.836-2.616 4.348-8.153 8.142-14.362 6.384-8.249-3.661-14.779-9.1-21.094-14.358-5.182-4.316-10.533-8.772-16.832-12.284 1.187 7.49 3.5 27.413-4.349 32.714-3.418 2.309-8.291 1.553-14.482-2.246l-.105-.064-.063-.105c-4.229-7.117-5.279-17.36-6.295-27.266-.804-7.85-1.636-15.964-4.073-22.155-31.371-9.079-55.213-27.876-80.452-47.773-11.171-8.807-22.722-17.914-34.959-26.075-36.497-25.866-71.843-38.183-113.624-48.644-.514 7.351-.185 14.739.164 22.549.601 13.492 1.223 27.438-2.833 41.275 21.038 7.057 44.823 15.073 66.696 27.837 85.309 45.077 126.767 93.261 116.72 135.663-5.324 22.468-25.112 41.753-57.225 55.771-32.234 14.071-75.264 22.08-124.477 23.174 6.183 15.177 14.017 30.591 21.596 45.504 11.685 22.989 23.768 46.762 31.037 71.641 4.251 27.903 13.376 53.424 22.201 78.103 5.482 15.331 11.15 31.185 15.7 47.649l.018.123c.214 11.192-10.53 21.159-19.569 21.948-7.29.628-12.415-4.447-14.146-13.98-8.623 7.089-15.957 16.038-23.056 24.7-10.198 12.444-20.744 25.313-35.646 33.7-16.391 8.761-27.619 13.046-34.38 13.046zm-160.71-603.469.162.495c15.162 46.289 33.193 77.513 60.293 104.404l.105.104.031.145c4.666 21.341 8.107 40.518 11.435 59.063 9.742 54.29 18.155 101.176 52.064 179.146 4.256 9.637 8.303 19.604 12.217 29.243 15.021 36.994 30.553 75.248 61.232 102.694 10.038 11.575-6.643 42.382-22.774 72.174-13.111 24.214-25.494 47.085-19.313 53.299 4.242 4.268 17.051.596 39.157-11.221 14.729-8.29 25.214-21.084 35.354-33.457 7.313-8.923 14.874-18.149 23.866-25.386l.674-.542.134.854c2.032 12.999 9.144 14.345 13.215 13.991 8.546-.746 18.813-10.515 18.657-20.87-4.537-16.407-10.192-32.223-15.661-47.518-8.84-24.724-17.982-50.29-22.233-78.224-7.229-24.725-19.29-48.454-30.954-71.403-7.701-15.152-15.665-30.82-21.905-46.254l-.272-.672.725-.016c99.478-2.071 170.711-32.763 181.475-78.19 9.932-41.917-31.347-89.704-116.232-134.559-21.962-12.815-45.882-20.838-66.987-27.917l-.459-.153.14-.464c4.158-13.826 3.533-27.848 2.929-41.407-.359-8.051-.698-15.655-.119-23.261l.045-.591.575.144c42.142 10.52 77.745 22.866 114.524 48.934 12.259 8.176 23.826 17.295 35.012 26.114 25.223 19.885 49.046 38.667 80.345 47.666l.234.067.091.227c2.56 6.35 3.409 14.638 4.23 22.652.999 9.748 2.031 19.825 6.097 26.75 5.776 3.519 10.247 4.263 13.293 2.204 6.15-4.153 5.973-19.631 3.757-32.731l-.17-1.005.899.481c6.779 3.629 12.43 8.335 17.895 12.886 6.262 5.216 12.738 10.608 20.793 14.188 5.749 1.622 10.938-2.069 13.302-6.194l.145-.252h.291c5.741.006 9.326-1.399 10.528-4.226 2.269-5.336-4.07-14.652-8.885-19.611l-.659-.68.933-.162c5.884-1.02 8.922-3.03 9.03-5.975.473-12.91-50.146-39.725-63.377-43.032l-.214-.054-.104-.194c-30.583-56.708-83.428-102.701-161.553-140.608-31.091-15.413-60.97-23.549-101.132-31.854l.039.067-1.1-.238a22.059 22.059 0 0 1-1.393-.335l-2.531-.516-.425-.087.047-.823c.111-1.945.174-3.067.685-3.478a77.415 77.415 0 0 0-.371-3.923c-.559-14.809-6.063-25.482-14.155-36.966-9.958-13.176-22.051-17.389-34.855-21.85-17.687-6.161-35.975-12.534-47.642-44.565-18.479-27.613-57.853-28.604-85.263-13.604-20.748 11.355-38.12 34.443-24.651 65.188l.042.185c.298 9.512-1.913 14.141-3.377 17.203-2.335 4.888-2.963 6.201 12.09 19.815l.132.12.027.176c3.16 20.675 9.879 20.831 16.993 20.997 5.005.116 10.181.237 14.574 6.744l.391.579-.675.183c-1.583.43-3.145.855-4.688 1.278a3.533 3.533 0 0 1 1.103.043c4.265.826 8.418 9.236 12.695 25.711 1.823 7.99 3.667 12.093 5.643 12.559 1.929.446 4.395-2.545 7.245-6.02 1.551-1.892 3.309-4.035 5.263-5.973l.729-.724.12 1.02c9.231 78.512 29.131 133.435 62.625 172.845l.383.451-.508.303c-11.71 6.98-32.604 11.045-39.919 7.762l-.154-.107a257.909 257.909 0 0 1-65.686-118.645c-3.213-6.133-4.338-23.104-2.865-43.287 1.187-16.259 4.333-36.174 9.607-43.306.861-1.164 1.757-1.948 2.681-2.347-16.32 4.479-30.467 8.566-43.103 12.217-80.372 23.222-104.629 30.229-277.648 22.572l-.197-.051c-7.237-3.534-13.309-7.617-19.181-11.565-14.37-9.661-26.781-18.007-49.292-12.936l-.166.037-.154-.071c-24.928-11.551-43.302-17.381-65.535-20.795-6.578-.662-11.888 1.431-13.849 5.471-1.525 3.143-.619 6.79 2.488 10.007 2.915 2.363 9.186 4.553 15.824 6.87 9.292 3.244 18.901 6.599 21.047 11.153.543 1.153.594 2.347.151 3.545-4.849 10.254-5.419 19.385-1.715 27.179 9.245 19.449 42.865 27.729 67.413 33.775 4.114 1.014 8 1.971 11.447 2.902l.181.049.104.154c20.288 30.192 72.954 46.528 148.375 46.071 62.694-.402 136.325-12.995 187.584-32.084l.487-.182zm72.649 102.498c6.93 2.999 27.071-.932 38.402-7.448-33.247-39.36-53.076-94.023-62.349-171.886-1.633 1.701-3.128 3.525-4.468 5.159-3.188 3.887-5.702 6.957-8.247 6.357-2.483-.584-4.392-4.561-6.385-13.294-5.12-19.717-9.305-24.462-11.914-24.967-1.277-.251-2.565.494-3.828 2.201-9.071 12.268-13.721 72.258-6.634 85.586l.044.116a256.941 256.941 0 0 0 65.378 118.175zm118.013-214.732.239.05c-.729-1.233-1.237-2.006-1.591-2.479.128 1.659.292 2.099 1.352 2.429zm-2.143-.437.118.023a3.54 3.54 0 0 1-.1-.332l-.018.309zm-14.345 329.918-.162-.535c-9.927-32.978-8.777-55.517 3.239-63.465 13.105-8.669 37.815.676 67.793 25.637l.296.247-.163.35c-9.354 19.998-29.347 25.388-48.682 30.601-7.769 2.095-15.107 4.072-21.808 6.946l-.515.22zm14.75-66.189c-4.321 0-8.056.996-11.121 3.023-11.552 7.642-12.61 29.582-2.993 61.808 6.641-2.787 14.154-4.813 21.426-6.773 19-5.122 38.644-10.419 47.872-29.71-22.349-18.554-41.64-28.348-55.184-28.348zm258.52-6.474-.347-.612c-5.262-9.287-6.575-20.058-7.846-30.474-.689-5.653-1.34-10.993-2.582-16.051l-.098-.397.37-.174c12.197-5.739 18.939-17.426 18.499-32.064l-.028-.931.792.491c5.414 3.362 11.316 6.583 17.023 9.698 16.181 8.83 32.913 17.961 41.734 31.874l.608.959-1.118-.199c-8.602-1.533-16.004-6.748-23.162-11.792-7.384-5.202-14.379-10.131-22.148-10.758 5.128 5.137 11.371 9.665 17.42 14.053 11.672 8.467 23.742 17.223 27.925 30.543l.334 1.065-1.018-.46c-9.923-4.486-18.169-11.21-26.145-17.712-7.607-6.202-14.807-12.071-23.23-16.03 1.878 8.522 11.686 15.145 21.182 21.556 10.014 6.761 19.473 13.147 19.223 21.401l-.015.483-.484.002h-.027c-7.062 0-17.977-9.218-28.533-18.132-10.19-8.606-20.729-17.504-24.982-15.063-2.442 1.401-2.885 6.672-1.315 15.665.201 2.643.556 5.013.87 7.104.906 6.036 1.621 10.804-2.438 15.426l-.464.528zm-9.708-46.979c1.194 4.997 1.833 10.235 2.508 15.772 1.229 10.081 2.5 20.496 7.372 29.468 3.237-4.098 2.604-8.319 1.742-14.066-.316-2.108-.675-4.498-.872-7.13-1.689-9.668-1.117-14.977 1.809-16.655 4.865-2.788 14.716 5.531 26.126 15.166 10.177 8.595 20.694 17.475 27.416 17.882-.168-7.476-9.217-13.584-18.784-20.043-10.018-6.764-20.377-13.758-21.783-23.167l-.135-.905.835.375c8.922 4.011 16.403 10.11 24.324 16.567 7.642 6.23 15.534 12.665 24.877 17.091-4.393-12.402-15.979-20.807-27.194-28.942-6.438-4.671-13.097-9.5-18.444-15.08l-.833-.869 1.204.023c8.583.168 16.055 5.432 23.965 11.004 6.742 4.75 13.702 9.654 21.604 11.395-8.843-13.146-25.042-21.985-40.722-30.541-5.447-2.973-11.07-6.041-16.29-9.244.146 14.477-6.637 26.048-18.723 31.9zm-318.265-5.114-.231-.255c-35.462-39.202-58.819-119.319-66.235-181.329l-.087-.726.708.182c4.63 1.191 8.689 2.982 12.615 4.713 6.789 2.994 12.658 5.576 19.263 4.063 4.025-4.239 3.376-11.701 2.803-18.29-.335-3.848-.651-7.482-.063-10.262l.079-.373.381-.022c70.392-4.127 138.639 9.223 202.849 39.668 9.99.876 49.739 26.447 85.268 54.87 21.6 17.279 72.12 60.293 74.712 86.441.925 9.336-4.265 15.641-15.428 18.739l-.125.035-.126-.03c-29.916-7.251-52.007-24.563-75.395-42.892-10.929-8.564-22.23-17.422-34.506-25.282-29.177-21.557-60.585-36.901-93.379-45.626-21.802-8.533-34.046-10.536-39.763-6.517-5.368 3.777-5.104 12.995-4.768 24.666.809 28.183 2.033 70.773-68.251 98.101l-.321.125zm-65.385-180.971c7.477 61.612 30.621 140.813 65.665 179.789 69.304-27.077 68.092-69.155 67.292-97.016-.344-11.97-.615-21.426 5.193-25.512 6.099-4.292 18.256-2.382 40.648 6.385 32.862 8.74 64.384 24.14 93.635 45.752 12.289 7.867 23.609 16.739 34.557 25.318 23.268 18.234 45.245 35.458 74.887 42.676 10.54-2.962 15.443-8.896 14.576-17.643-1.799-18.146-28.896-49.403-74.342-85.76-38.155-30.523-76.245-54.032-84.811-54.66l-.178-.047c-63.964-30.345-131.939-43.675-202.057-39.636-.456 2.593-.159 5.998.153 9.595.597 6.858 1.273 14.631-3.185 19.18l-.101.104-.141.033c-6.989 1.666-13.329-1.128-20.04-4.088-3.686-1.625-7.49-3.303-11.751-4.471zm-254.75 111.066c-8.961 0-18.285-.229-27.702-.785-50.426-2.981-85.151-14.094-103.21-33.028l-.107-.172c-5.819-15.836-5.593-27.516.692-35.707 13.846-18.044 54.463-14.37 90.299-11.126 16.066 1.454 31.244 2.829 42.119 2.003 68.946 4.938 134.086-16.169 197.081-36.58l5.503-1.782-.367.973c-11.307 29.965-9.034 49.601-7.531 62.595 3.251 28.095 3.517 30.39-125.859 49.286-9.394 1.177-37.654 4.324-70.918 4.324zm-130.116-34.429c17.899 18.699 52.376 29.683 102.474 32.646 44.286 2.617 86.533-2.041 98.426-3.532 128.405-18.755 128.148-20.977 125-48.181-1.499-12.948-3.755-32.444 7.225-62.091l-3.529 1.143c-63.086 20.441-128.322 41.581-197.387 36.627-10.889.827-26.104-.548-42.211-2.006-35.58-3.219-75.906-6.869-89.416 10.74-6.047 7.881-6.238 19.217-.583 34.654zm-6.697-5.837L79.322 218.06l1.272-.528c13.874-5.762 20.828-11.445 21.258-17.373.425-5.857-5.569-12.41-18.326-20.032l-.542-.324.439-.453c.594-.613 1.233-1.19 1.851-1.748 2.656-2.4 4.968-4.489 3.6-8.768-20.73 17.223-30.867 20.47-33.444 17.729-1.784-1.896-.069-6.156 4.368-10.854 11.742-12.429 43.244-28.14 78.421 1.364l.402.337-.356.385c-2.494 2.701-5.076 5.189-7.572 7.597-11.659 11.241-21.728 20.949-13.416 43.677l.348.951zm-35.386-12.096 33.76 10.54c-7.914-22.66 2.253-32.466 14-43.793 2.366-2.281 4.809-4.637 7.173-7.169-34.444-28.568-65.176-13.252-76.648-1.106-4.37 4.627-5.504 8.272-4.366 9.482 1.756 1.867 10.605.12 32.627-18.271l.535-.446.252.649c2.083 5.374-.82 7.997-3.627 10.533-.451.408-.914.825-1.356 1.256 12.909 7.799 18.716 14.363 18.261 20.633-.447 6.152-7.191 11.945-20.61 17.692zm3.894-7.896c-15.575 0-41.226-12.669-45.902-24.16l-.749-1.841 1.531 1.268c10.262 8.493 23.961 13.149 36.047 17.258 5.485 1.864 10.665 3.625 15.341 5.639l1.181.509-1.214.423c-1.78.619-3.895.905-6.235.905zm-43.932-22.518c7.246 11.632 35.516 24.044 48.502 21.05-4.296-1.775-9.005-3.376-13.965-5.062-11.469-3.898-24.379-8.286-34.537-15.988zm57.927 13.747-.947-.048c-10.319-.513-19.188-3.744-28.579-7.165l-3.446-1.25.381-.536c4.08-5.747 8.449-8.568 12.994-8.431 6.12.205 12.368 5.643 19.102 16.621l.496.809zm-31.39-8.954 2.207.802c9.024 3.287 17.563 6.398 27.329 7.051-6.348-10.125-12.167-15.141-17.777-15.329-4.037-.113-8 2.379-11.759 7.477zm-20.405-9.3c-1.935 0-3.802-1.149-4.945-3.115-1.694-2.916-1.907-7.846 2.578-12.939l.225-.256 10.182 3.676-.047.395c-1.177 9.892-5.289 11.784-7.002 12.139a4.91 4.91 0 0 1-.991.102zm-1.838-15.138c-3.906 4.602-3.733 8.953-2.242 11.52 1.117 1.923 3.025 2.924 4.868 2.537 3.062-.633 5.353-4.69 6.163-10.884zm448.484 5.44-.472-.31c-3.882-2.544-4.83-6.267-5.747-9.866-.57-2.237-1.159-4.55-2.458-6.553l-.564-.871 17.116 1.672zm-7.324-16.407c1.036 1.909 1.563 3.977 2.074 5.984.869 3.411 1.691 6.641 4.86 8.955l6.727-13.605zm-426.138 7.731c-3.879 0-7.842-1.654-12.833-3.739-1.828-.763-3.718-1.552-5.827-2.357-3.936-2.082-9.219-3.809-14.813-5.636-9.98-3.26-20.301-6.632-23.191-12.289l-.328-.643.717-.082c16.397-1.854 32.215 3.343 47.511 8.372 8.108 2.667 15.767 5.185 23.396 6.662l.864.168-.586.656c-5.886 6.592-10.341 8.888-14.91 8.888zM6.114 140.795c3.164 4.919 12.855 8.084 22.24 11.15 5.636 1.841 10.959 3.58 14.915 5.678 2.067.785 3.964 1.577 5.799 2.343 10.582 4.419 15.994 6.679 26.022-4.24-7.402-1.508-14.817-3.945-22.65-6.521-14.956-4.918-30.412-10.004-46.327-8.409zm530.759 23.16-24.866-9.249 24.866-12.866zm-22.4-9.399 21.4 7.96v-19.033zm-17.407.256c-1.02 0-1.973-.052-2.844-.159-5.155-1.08-6.681-5.466-8.157-9.708-1.036-2.976-2.106-6.053-4.409-7.996-3.899-3.771-9.545-3.852-15.522-3.937-1.173-.017-2.357-.034-3.542-.078l-.143-.006-.119-.08c-5.941-4.019-7.123-9.018-8.265-13.852-1.538-6.506-2.99-12.651-15.709-16.507l-.128-.039-.091-.097c-3.602-3.827-.797-7.902 1.915-11.843 1.03-1.496 2.095-3.044 2.778-4.544 2.571-7.772 1.414-16.16.295-24.271-1.25-9.067-2.432-17.632 1.32-25.233l.305-.618.493.482c22.731 22.23 47.477 43.062 77.99 32.645l.118-.024c3.914-.349 6.344.551 8.377 3.102l.062.1c5.662 12.069 2.441 15.657-1.288 19.811-4.542 5.06-10.195 11.355.471 37.924 1.725 3.887 1.222 7.729-1.501 11.405-6.319 8.53-22.474 13.524-32.408 13.524zm-34.292-22.872c1.128.04 2.256.056 3.374.072 6.181.088 12.019.171 16.178 4.195 2.487 2.097 3.604 5.306 4.684 8.409 1.448 4.162 2.816 8.094 7.376 9.051 8.874 1.082 27.629-3.99 34.284-12.976 2.493-3.365 2.958-6.871 1.384-10.42-10.905-27.163-5.021-33.716-.294-38.981 3.63-4.043 6.498-7.238 1.152-18.665-1.801-2.232-3.891-2.987-7.411-2.688-30.798 10.477-55.651-10.157-78.454-32.406-3.253 7.178-2.124 15.369-.93 24.027 1.134 8.225 2.307 16.729-.356 24.772-.739 1.631-1.83 3.215-2.884 4.746-2.576 3.743-5.01 7.281-2.099 10.495 13.15 4.026 14.732 10.721 16.262 17.194 1.141 4.827 2.219 9.389 7.734 13.173z"/><path d="M535.131 221.78c3.49 4.681-5.117 13.825-5.909 1.69.551-1.596 2.13-2.727 5.909-1.69zm32.071 90.616c2.916-.354 10.125 2.827 4.212 6.714-3.717 1.927-4.691-2.35-4.212-6.714zm-41.928-117.449c-5.115 1.846-7.742-8.054.095-6.357 1.732 1.277 2.859 3.56-.095 6.357zm33.12 96.349c-1.631 3.796-10.042 2.747-5.542-2.783 2.175-1.242 1.856-.319 5.542 2.783zm-17.924-27.324c-4.509-3.762 5.609-8.902 4.169-1.659-.88.38-1.534 1.123-4.169 1.659z"/></svg></g><g transform="translate(2683.5 975.0) rotate(0.0 -403.5 576.75) scale(-1.2530725120610169 1.2529477129223607)"><svg width="644.017" height="920.629" viewBox="0 0 644.017 920.629"><g fill="#fff"><path d="M566.933 292.708c-27.408 83.958-86.263 119.245-169.411 104.822a2.002 2.002 0 0 1-.798-.317c-12.987-8.977-21.948-50.848-22.262-56.687a1.18 1.18 0 0 0-.013-.132c-7.658-53.362 7.939-89.473 4.206-92.116-8.193-8.901-17.005 69.693-16.153 69.865 1.334 39.398 5.276 24.178-7.908 45.079-.02.032-.041.063-.064.094-5.6 7.576-12.314 23.68-15.287 22.926-11.481-4.097-22.336-6.588-34.248-9.386-19.156-5.189-21.603-.314-29.886 7.645-1.16 1.115-3.092.445-3.328-1.146-.268-1.807-.385-3.882-.294-5.682.051-1.026.853-1.91 1.88-1.912 2.757-.005 3.757-2.625 5.36-5.413 54.122-96.649 53.556-117.759 112.659-155.319.051-.033.106-.064.16-.092 67.416-34.983 56.251-17.703 85.998-17.102 10.079 1.055 35.834-5.769 37.524-12.405.256-1.007 1.193-1.668 2.222-1.525 35.92 5.004 64.243 33.427 86.576 60.554.049.059.094.12.137.185 24.899 37.376 30.904 96.828 26.779 113.341-8.759 42.38-33.237 66.454-55.593 95.974-.12.159-.262.299-.423.415-24.285 17.538-61.878 29.212-77.786 30.414a1.741 1.741 0 0 0-.143.017c-75.814 12.479-120.659-.577-171.677-37.825a2.126 2.126 0 0 1-.402-.379c-11.604-14.392 10.358-53.465 19.609-50 29.804 5.305 57.268 17.936 88.317 16.134.067-.004.135-.004.202.001 97.686 6.359 138.003-89.415 137.906-119.412-.007-2.267-3.155-2.77-3.859-.616z"/><path d="M445.967 493.396c-16.235 0-31.095-1.654-45.183-4.964-26.138-6.142-50.188-17.931-77.983-38.223a6.127 6.127 0 0 1-1.156-1.097c-9.447-11.717-1.183-34.318 7.701-46.625 5.708-7.905 11.238-11.273 16.019-9.772 10.22 1.836 20.233 4.529 29.918 7.134 19.204 5.165 37.342 10.044 57.168 8.892.23-.014.464-.012.695.002 34.996 2.278 65.446-8.514 90.509-32.074 19.767-18.583 32.428-41.933 38.62-60.497-30.607 69.408-87.375 98.841-165.437 85.299a5.941 5.941 0 0 1-2.388-.967c-14.837-10.256-23.568-53.73-23.976-59.643-2.407-16.833-2.54-31.994-1.696-44.955-1.313 9.406-2.2 17.481-2.323 20.805l.044 1.296c.34 10.056.859 16.606 1.202 20.941.81 10.227.756 11.165-4.061 17.978-1.361 1.925-3.224 4.56-5.664 8.429a5.352 5.352 0 0 1-.235.343c-2.036 2.754-4.317 6.881-6.523 10.872-5.263 9.521-8.163 14.763-12.96 13.549l-.361-.11c-10.834-3.866-21.343-6.332-32.468-8.942l-1.482-.35c-15.168-4.109-17.537-1.763-23.867 4.511a190.12 190.12 0 0 1-2.202 2.158 5.943 5.943 0 0 1-6.067 1.345 5.967 5.967 0 0 1-3.989-4.789c-.312-2.104-.433-4.462-.333-6.47.158-3.151 2.664-5.633 5.732-5.709.359-.379.956-1.464 1.363-2.205.216-.394.438-.797.672-1.204 12.29-21.947 21.577-39.656 29.77-55.279 27.422-52.288 37.682-71.853 84.211-101.422.163-.102.318-.191.472-.271 50.287-26.095 58.598-23.767 71.178-20.242 4.459 1.249 9.07 2.541 16.734 2.696l.335.021c9.833 1.031 31.275-5.65 33.251-9.489.788-2.943 3.624-4.841 6.629-4.424 38.136 5.312 67.656 35.91 89.113 61.973.14.17.264.338.381.514 25.023 37.562 32.017 97.495 27.348 116.441-7.424 35.823-25.425 58.446-44.482 82.395-3.896 4.896-7.925 9.958-11.823 15.106a6 6 0 0 1-1.272 1.244c-24.964 18.029-62.914 29.841-79.715 31.15-18.77 3.085-35.737 4.629-51.419 4.629zM327.72 443.895c26.801 19.54 49.909 30.878 74.894 36.75 26.659 6.264 56.392 6.331 93.572.212.161-.026.313-.045.47-.058 16.13-1.219 52.566-13.018 75.523-29.495 3.9-5.142 7.895-10.162 11.76-15.02 18.46-23.199 35.896-45.111 42.924-79.111l.037-.16c3.926-15.713-1.9-73.571-26.18-110.083-20.228-24.562-47.809-53.297-82.458-58.837-5.073 9.067-31.066 14.673-40.959 13.736-8.59-.191-14.121-1.741-18.571-2.987-10.745-3.009-17.845-4.999-65.274 19.607-44.661 28.393-54.656 47.449-81.344 98.34-8.218 15.669-17.531 33.429-29.897 55.512a64.5 64.5 0 0 0-.619 1.109l-.058.106c5.268-3.292 11.633-4 24.436-.54l1.284.302c10.738 2.52 20.913 4.907 31.511 8.559 1.443-1.892 3.797-6.15 5.448-9.137 2.313-4.185 4.704-8.51 7.04-11.688 2.531-4.008 4.448-6.72 5.851-8.704 1.934-2.735 2.614-3.735 2.847-4.805.292-1.342.107-3.68-.229-7.923a432.018 432.018 0 0 1-1.208-20.87 4.579 4.579 0 0 1-.033-.235c-.288-2.481 1.717-20.479 4.241-36.195 5.644-35.133 9.995-37.128 12.333-38.2 2.129-.975 4.496-.51 6.263 1.206 2.905 2.406 2.085 6.698.204 16.545-2.856 14.95-8.172 42.776-3.118 77.995.024.164.039.316.048.49.374 6.965 9.37 45.179 20.185 53.349 40.381 6.925 74.83 1.86 102.396-15.061 27.922-17.138 48.813-46.455 62.093-87.136a5.956 5.956 0 0 1 6.611-4.061 5.963 5.963 0 0 1 5.05 5.904c.033 10.342-4.08 25.492-11.003 40.526-5.96 12.941-16.809 31.888-34.653 48.662-24.139 22.692-54.156 34.53-87.271 34.531-3.009 0-6.038-.098-9.096-.294-21.061 1.198-40.633-4.071-59.562-9.161-9.615-2.586-19.558-5.26-29.541-7.037l-.594-.152c-1.861.139-7.701 5.618-12.573 15.929-5.547 11.732-6.623 22.508-2.78 27.58zm23.493-82.812-.005.008.005-.008zm.101-.146-.005.007.005-.007zm19.176-19.979.001.009-.001-.009zm-.021-.218v.008-.008zm196.464-48.032 3.802 1.241zm33.74-45.849.003.004-.003-.004zm-207.281-28.376-.005.002a.008.008 0 0 0 .005-.002zm117.835-34.149zM265.119 373.997c1.036 44.427-1.474 88.784-1.477 133.414a1.965 1.965 0 0 1-2.758 1.803c-41.82-18.353-84.529-34.808-126.152-53.989a2.05 2.05 0 0 1-.651-.471c-19.213-20.882-5.967-64.437-24.67-55.619a1.995 1.995 0 0 1-2.764-1.219c-2.774-8.831-9.133-2.495-7.732-11.63.012-.077.02-.16.022-.238 1.391-55.332-3.642-66.117-3.156-77.046.06-1.355 1.443-2.249 2.707-1.755 86.798 33.928 141.747 59.177 165.133 64.877a1.97 1.97 0 0 1 1.498 1.873z"/><path d="M261.68 513.383a5.982 5.982 0 0 1-2.405-.506c-17.379-7.626-35.23-15.057-52.492-22.243-24.271-10.103-49.368-20.55-73.726-31.775a6.002 6.002 0 0 1-1.918-1.394c-10.112-10.991-11.929-26.92-13.389-39.72-.703-6.167-1.667-14.614-3.608-15.695-.26-.146-1.191-.16-3.025.705a5.996 5.996 0 0 1-8.286-3.639c-.725-2.307-1.349-2.537-2.715-3.041-3.296-1.216-6.201-3.303-5.174-10.262.928-37.17-1.085-54.191-2.288-64.366-.603-5.1-1.039-8.785-.868-12.622a5.992 5.992 0 0 1 2.713-4.744 6.004 6.004 0 0 1 5.446-.56c34.979 13.673 65.173 26.095 89.435 36.076 35.711 14.691 61.513 25.307 75.189 28.64a5.983 5.983 0 0 1 4.55 5.667c.608 26.098-.012 52.583-.612 78.197-.424 18.117-.863 36.851-.864 55.311a5.951 5.951 0 0 1-2.703 4.999 5.957 5.957 0 0 1-3.26.972zm-124.918-61.626c24.113 11.101 49.012 21.465 73.096 31.491 16.359 6.81 33.243 13.838 49.787 21.059.046-17.542.461-35.242.862-52.393.586-25.019 1.191-50.872.646-76.29-14.469-3.801-38.733-13.783-74.819-28.629-23.595-9.707-52.804-21.724-86.555-34.947.098 2.369.409 5 .818 8.458 1.23 10.399 3.288 27.805 2.337 65.643a6.16 6.16 0 0 1-.066.742c-.117.767-.151 1.283-.153 1.615l.167.062c1.743.643 4.803 1.771 6.812 6.139 3.177-1.08 5.976-.964 8.341.354 5.531 3.082 6.472 11.332 7.663 21.777 1.315 11.522 2.946 25.832 11.064 34.919zm285.133-395.5a1.985 1.985 0 0 1 1.752-1.604c24.92-2.408 13.534-2.764 23.344 14.204 14.589 22.566 27.984 29.725 45.879 34.219.273.069.564.089.84.036 3.664-.701 6.366-4.134 10.72-3.344 14.139 2.165 7.164 13.955.788 19.969-.561.529-.737 1.331-.5 2.064 3.485 10.776 1.007 22.495 3.034 33.886.012.066.02.134.023.201.943 17.136 2.752 22.937 1.078 26.558a2.007 2.007 0 0 1-.957.965c-15.052 7.197-31.901 11.022-48.396 7.96a2.024 2.024 0 0 1-1.293-.841c-4.71-6.836 2.582-25.096-6.395-30.408-7.877-5.718-19.338-3.946-23.754-9.196a2.557 2.557 0 0 1-.213-.294c-8.096-12.836-.771-30.261-9.462-34.762-3.304-2.26-8.222-3.1-10.473-6.923a2.397 2.397 0 0 1-.179-.376c-3.66-9.65 10.015-16.373 10.499-26.21.365-9.177 1.984-17.28 3.665-26.104z"/><path d="M471.159 194.923c-4.133 0-8.18-.363-12.114-1.093a4.548 4.548 0 0 1-2.895-1.881c-2.46-3.57-2.292-8.865-2.114-14.471.201-6.339.409-12.894-3.495-15.204l-.195-.128c-3.446-2.501-7.802-3.419-12.015-4.307-4.827-1.017-9.386-1.978-12.183-5.303a5.219 5.219 0 0 1-.413-.567c-4.289-6.799-4.597-14.435-4.87-21.171-.277-6.857-.601-11.139-3.629-12.708l-.262-.156c-.948-.648-2.134-1.196-3.39-1.775-2.785-1.286-5.943-2.743-7.826-5.943a4.915 4.915 0 0 1-.363-.759c-2.526-6.659 1.516-12.062 5.082-16.83 2.613-3.494 5.082-6.794 5.258-10.388.351-8.883 1.859-16.779 3.455-25.138l.25-1.311a4.502 4.502 0 0 1 3.969-3.624c1.931-.187 3.645-.361 5.167-.516 12.012-1.223 14.178-1.442 16.122 5.378.64 2.244 1.606 5.632 4.428 10.525 14.164 21.889 26.963 28.718 44.259 33.075 1.004-.224 2.042-.779 3.137-1.366 2.155-1.155 4.838-2.59 8.356-1.953 6.775 1.037 9.142 4.243 9.923 6.748 1.76 5.647-2.945 12.763-7.612 17.259 2.015 6.419 2.067 13.103 2.117 19.57.037 4.755.075 9.672.91 14.365.03.165.049.335.058.502.354 6.426.822 11.161 1.198 14.965.652 6.598.98 9.91-.346 12.779a4.508 4.508 0 0 1-2.15 2.173c-12.817 6.126-25.681 9.253-37.817 9.253zm-10.997-5.971c14.337 2.608 30.405-.059 46.492-7.717.666-1.67.367-4.688-.161-10.026-.36-3.64-.853-8.623-1.212-15.134-.901-5.092-.94-10.206-.978-15.152-.05-6.468-.097-12.578-1.964-18.353-.544-1.68-.098-3.462 1.163-4.652 3.888-3.668 7.496-9.252 6.523-12.375-.647-2.074-3.605-2.942-5.974-3.305-1.785-.323-3.125.333-5.17 1.429-1.36.729-2.902 1.555-4.701 1.899a4.512 4.512 0 0 1-1.917-.066c-18.101-4.546-32.338-12.035-47.371-35.287l-.065-.106c-3.156-5.458-4.229-9.221-4.939-11.711-.26-.913-.584-2.049-.797-2.275-.728-.444-4.824-.026-10.011.501-1.426.145-3.019.307-4.802.48l-.178.933c-1.56 8.171-3.033 15.888-3.371 24.422-.253 5.144-3.439 9.403-6.25 13.161-3.71 4.96-5.858 8.248-4.41 12.064 1.086 1.847 3.283 2.861 5.609 3.934 1.344.621 2.731 1.261 3.993 2.104 5.628 3.02 5.9 9.75 6.188 16.873.247 6.111.527 13.037 4.102 18.704 1.699 2.025 5.268 2.777 9.4 3.647 4.474.943 9.54 2.01 13.829 5.086 6.344 3.845 6.078 12.215 5.843 19.604-.14 4.448-.286 9.04 1.129 11.318zM201.769 758.323c.719-1.169 2.361-1.264 3.227-.198 10.898 13.417 22.855 12.164 35.613 12.04 11.797-.451 22.981 1.053 33.572-3.875 1.224-.57 2.653.285 2.773 1.63 2.361 26.627-15.197 37.738-33.445 49.414-29.932 20.483-49.387 28.843-68.263 40.048-15.918 9.417-33.584 18.392-36.625 17.004-4.468-1.456-11.219-13.289-8.467-17.08 22.135-34.713 49.975-63.778 71.615-98.983z"/><path d="M139.184 878.498c-1.029 0-1.621-.208-2.041-.392-4.956-1.799-9.279-9.047-10.791-13.705-1.268-3.906-1.105-7.043.482-9.327 10.694-16.761 22.848-32.403 34.602-47.532 12.669-16.306 25.769-33.167 36.925-51.315a5.98 5.98 0 0 1 4.693-2.833 5.996 5.996 0 0 1 5.046 2.208c8.885 10.938 18.065 10.791 29.689 10.601.904-.015 1.811-.029 2.723-.038 2.808-.106 5.574-.106 8.249-.104 8.435.008 16.413.006 23.732-3.398a5.94 5.94 0 0 1 5.468.248 5.995 5.995 0 0 1 2.976 4.655c2.564 28.926-16.548 41.155-35.032 52.982l-.19.122c-20.273 13.869-35.791 22.23-49.482 29.608-6.599 3.556-12.833 6.914-18.947 10.543-25.556 15.122-34.5 17.677-38.102 17.677zm-5.666-19.027c-.457 2.383 3.747 9.856 6.183 11.042 2.893-.319 14.802-5.506 33.509-16.573 6.252-3.711 12.556-7.108 19.23-10.705 13.528-7.289 28.862-15.551 48.81-29.202l.345-.223c17.273-11.052 32.282-20.658 31.546-42.753-8.072 3.01-16.359 3.001-24.382 3.004-2.62-.001-5.324-.003-7.997.1l-.114.003c-.913.009-1.823.023-2.728.038-11.491.188-23.352.377-34.201-11.438-11.049 17.618-23.708 33.91-35.966 49.687-11.661 15.009-23.719 30.528-34.226 47.005zm71.659-99.054-.003.004.003-.004z"/><path d="M179.027 862.75c1.295-.783 2.963.136 2.998 1.648 1.046 45.675-32.606 43.53-66.105 46.446-46.974 3.881-87.398 5.237-108.571 1.238a1.98 1.98 0 0 1-1.589-2.257c2.879-17.575 24.144-21.488 38.416-28.035a1.35 1.35 0 0 1 .137-.055c14.082-4.898 27.736-11.482 40.65-19.454.086-.053.17-.114.248-.179 37.461-31.235 10.664-29.964 43.724-21.819 1.428.352 1.98 2.093 1.02 3.207-17.152 19.914 3.644 33.923 14.477 34.676.14.01.275.006.415-.01 12.15-1.354 25.627-10.235 34.18-15.406z"/><path d="M43.266 917.016c-15.578 0-27.64-.826-36.38-2.478-2.37-.448-3.981-2.744-3.592-5.118 2.523-15.404 17.433-21.111 30.589-26.146 3.297-1.262 6.411-2.454 9.251-3.757.127-.057.245-.105.367-.147 13.709-4.768 27.22-11.235 40.15-19.218 14.823-12.364 19.391-19.575 21.586-23.041 3.291-5.196 4.827-4.935 11.539-2.842 2.86.891 6.777 2.112 12.759 3.585a4.44 4.44 0 0 1 3.188 2.98 4.445 4.445 0 0 1-.872 4.285c-5.602 6.504-7.252 12.656-4.905 18.284 3.094 7.418 12.245 11.89 17.661 12.267 10.418-1.165 22.07-8.297 30.578-13.506.89-.545 1.741-1.066 2.549-1.554a4.43 4.43 0 0 1 4.466-.09 4.434 4.434 0 0 1 2.324 3.821c1.005 43.873-29.626 46.115-59.249 48.283-3.03.222-6.084.445-9.138.711-29.724 2.455-53.903 3.681-72.871 3.681zm-34.949-7.297c18.817 3.426 54.943 2.967 107.397-1.366 3.065-.267 6.143-.492 9.196-.715 29.556-2.163 55.113-4.03 54.632-42.275l-1.747 1.067c-8.909 5.454-21.11 12.923-32.67 14.211-.3.032-.581.038-.865.019-7.693-.535-18.265-6.548-21.928-15.33-2.11-5.058-2.879-13.082 5.184-22.825-5.682-1.423-9.596-2.643-12.227-3.462-1.991-.62-3.867-1.229-4.491-1.192-.28.269-.839 1.152-1.337 1.937-2.331 3.681-7.183 11.34-22.647 24.234a4.575 4.575 0 0 1-.535.386c-13.24 8.174-27.082 14.798-41.143 19.689-2.903 1.336-6.091 2.557-9.465 3.848-12.311 4.71-25.034 9.579-27.354 21.774zM520.932 41.43l-91.851 3.477c-1.457.055-2.479-1.437-1.896-2.774 21.902-50.19 96.006-50.083 95.654-2.685a1.992 1.992 0 0 1-1.907 1.982z"/><path d="M429.002 47.409a4.459 4.459 0 0 1-3.701-1.96 4.455 4.455 0 0 1-.408-4.315c13.818-31.664 46.57-43.372 70.372-38.313 18.972 4.033 30.215 17.732 30.074 36.646a4.48 4.48 0 0 1-4.312 4.46l-91.851 3.478a3.393 3.393 0 0 1-.174.004zm55.051-40.734c-20.029 0-43.231 11.317-54.242 35.703l90.528-3.428c-.072-16.111-9.803-27.771-26.114-31.239-3.237-.687-6.657-1.036-10.172-1.036zm-402.1 400.438c1.202-2.462 4.893-1.56 4.881 1.18-.105 23.881 9.398 49.392 13.091 43.678-.49-9.414-6.156-19.97-6.539-30.11-1.005-5.311-.852-32.244 5.345-27.827 4.986 8.682.581 20.892 2.088 30.93.192 8.525 3.945 29.269 8.565 26.235 5.273-1.56-1.823-9.675-1.488-13.202-1.968-11.227-2.951-24.429.794-32.92 1.04-2.357 4.521-1.882 4.919.663 5.102 32.61 3.226 52.921 38.372 64.763.781.263-1.578 4.955-1.383 5.756 1.409 5.806-18.079 5.577-21.033 3.978-35.173-3.34-56.077-55.782-47.612-73.124z"/><path d="M137.592 482.695c-3.656 0-6.966-.404-8.418-.989-15.59-1.586-30.381-12.94-40.614-31.19-9.126-16.277-12.472-34.807-7.955-44.061.847-1.736 2.68-2.608 4.561-2.169 1.904.444 3.177 2.057 3.168 4.013-.092 20.971 6.878 40.456 10.024 42.779-.365-4.088-1.662-8.408-3.03-12.962-1.58-5.261-3.214-10.701-3.436-16.092-.686-3.994-1.365-26.127 3.866-29.475.683-.438 2.092-.986 3.844.264l.267.19.163.284c3.287 5.724 2.786 12.728 2.302 19.501-.29 4.05-.589 8.238-.031 11.954l.016.189c.223 9.866 3.841 24.608 6.15 25.068.001-.003.035-.016.092-.054l.185-.122.213-.063c.636-.188.75-.438.788-.521.457-1-.727-3.604-1.592-5.505-.939-2.065-1.828-4.021-1.767-5.654-2.609-14.986-2.296-26.294.929-33.609.747-1.692 2.414-2.631 4.255-2.391a4.068 4.068 0 0 1 3.519 3.427c.624 3.988 1.14 7.76 1.638 11.408 3.585 26.23 5.749 42.063 35.731 52.166.435.146.786.458.988.879.452.939.08 2.061-.737 4.307-.217.597-.536 1.474-.612 1.838.288 1.494-.291 2.88-1.642 3.921-2.537 1.956-8.007 2.669-12.865 2.669zm-54.291-74.924c-4.117 8.436-.805 25.795 7.876 41.278 9.799 17.477 23.843 28.3 38.53 29.695l.304.029.269.145c1.951 1.056 14.917 1.374 18.347-1.268.645-.497.566-.822.514-1.037-.182-.75.099-1.576.751-3.371a39.31 39.31 0 0 0 .579-1.671c-30.768-10.727-33.14-28.099-36.714-54.249-.497-3.634-1.01-7.392-1.63-11.351-.117-.75-.752-.891-.944-.916-.24-.029-.829-.033-1.12.626-2.953 6.696-3.191 17.78-.689 32.056l.035.199-.019.201c-.083.881.756 2.726 1.496 4.354 1.285 2.826 2.615 5.749 1.59 7.993-.452.991-1.282 1.693-2.467 2.089-.959.548-2.012.569-2.99.056-5.258-2.761-7.56-22.518-7.697-27.537-.589-4.018-.28-8.339.019-12.52.463-6.472.9-12.593-1.732-17.472-.16-.075-.213-.041-.235-.027-2.833 1.813-3.611 20.717-2.515 26.507l.025.222c.19 5.044 1.779 10.333 3.316 15.449 1.463 4.87 2.975 9.906 3.222 14.64l.025.485-.263.407c-.798 1.236-2.023 1.751-3.281 1.377-5.841-1.737-12.654-26.604-12.57-45.876.004-.816-.65-1.032-.85-1.079-.243-.055-.85-.114-1.182.566zm249.406 60.166-58.436 40.569c-1.277.887-3.031.024-3.107-1.528-.431-8.818-.377-19.045 1-22.838.096-.266.267-.501.471-.697 37.156-35.926 52.003-31.87 14.511-47.228-1.583-.648-1.664-2.892-.114-3.616 10.751-5.028 25.781.113 24.098 2.838-2.032 14.487 11.716 21.485 21.683 29.324 1.043.819.984 2.419-.106 3.176z"/><path d="M273.139 512.859a5.98 5.98 0 0 1-5.971-5.686c-.338-6.91-.627-19.268 1.235-24.398a5.813 5.813 0 0 1 1.451-2.208c9.792-9.468 18.121-16.248 24.203-21.199 4.98-4.054 10.124-8.242 10.828-9.997-1.525-2.191-12.156-6.547-19.256-9.455a5.993 5.993 0 0 1-3.715-5.402 5.952 5.952 0 0 1 3.423-5.539c10.246-4.792 24.571-1.934 28.492 2.469 1.31 1.471 1.733 3.337 1.203 5.009-1.002 8.846 5.378 14.225 15.165 21.36 1.693 1.234 3.443 2.51 5.088 3.804a5.989 5.989 0 0 1 2.273 4.866 6.01 6.01 0 0 1-2.57 4.74l-58.437 40.569a5.98 5.98 0 0 1-3.412 1.067zm2.642-26.895c-.629 2.341-1.051 8.25-.77 17.157l53.137-36.89a324.572 324.572 0 0 0-2.664-1.956c-4.513-3.291-9.576-6.981-13.272-11.653-1.668 3.638-6.142 7.28-13.105 12.948-5.892 4.799-13.936 11.347-23.326 20.394zm54.645-21.313-.006.004zm-36.465-29.95c5.77 2.414 10.086 4.373 13.134 6.3a22.61 22.61 0 0 1-.083-4.724c-2.244-1.059-7.625-2.36-13.051-1.576z"/><path d="M273.346 397.785c9.586-21.837 27.339-14.255 36.947-12.343 22.968 5.831 27.716 4.812 24.431 8.708-22.943 17.566-18.718 33.818-24.07 34.315-28.804-15.461-45.65 20.262-34.141-1.634l.003-.005c15.694-24.435 21.184-12.725 30.359-17.251l.001-.001c1.859-4.734-6.507-4.208-9.428-5.414-11.42-3.5-15.97 5.073-23.17 9.821 10.403-26.399 22.301-14.527 39.018-22.979 3.966-6.192-21.987-4.255-23.7-3.935-9.291 1.668-11.537 4.968-16.25 10.718z"/><path d="M272.636 440.696c-2.01 0-3.291-1.056-3.884-1.544-1.223-1.008-3.802-3.896-1.354-8.937.38-.782.923-1.804 1.745-3.351.402-.756.865-1.628 1.393-2.63l-9.841 6.488 5.498-13.952-17.828 21.755 19.03-43.353c10.645-24.25 30.955-19.289 40.715-16.903 1.261.308 2.453.599 3.452.798l.331.075c6.933 1.76 12.208 2.892 16.06 3.719 8.412 1.805 12.251 2.629 13.811 7.19.942 2.754.246 5.543-2.07 8.29l-.456.541-.562.43c-13.208 10.112-16.165 19.274-18.121 25.337-1.323 4.1-3.136 9.716-9.298 10.289l-1.95.181-1.726-.926c-12.893-6.92-22.318-1.517-29.089 3.965-2.384 1.929-4.33 2.538-5.856 2.538zm23.168-22.787c4.15 0 8.321.785 12.504 2.356.467-1.444 1.024-3.135 1.769-5.022l-.326.161c-4.388 2.165-8.291 1.924-11.141 1.749-1.87-.115-3.628-.224-5.773.891.988-.09 1.978-.135 2.967-.135zm11.832-17.968c1.925.798 3.708 2.046 4.895 4.137a8.488 8.488 0 0 1 1.1 3.795c2.262-3.906 5.411-8.211 9.938-12.658a471.305 471.305 0 0 1-4.611-1.015 9.726 9.726 0 0 1-.189.307l-.957 1.494-1.583.801a39.146 39.146 0 0 1-8.593 3.139zm46.866-332.254c16.859-8.671 37.153-8.74 56.034-11.697a1.978 1.978 0 0 1 2.273 2.205c-1.251 10.17.258 17.31-4.207 16.908-18.338.111-35.626-1.333-53.461-3.683-1.932-.255-2.373-2.841-.639-3.733z"/><path d="M408.95 79.119c-.158 0-.319-.005-.484-.015-16.764.104-33.888-1.088-53.847-3.718a5.954 5.954 0 0 1-5.112-4.903 5.97 5.97 0 0 1 3.165-6.353c13.236-6.808 28.299-8.55 42.866-10.236 4.758-.55 9.677-1.12 14.379-1.856a5.93 5.93 0 0 1 5.086 1.608 5.941 5.941 0 0 1 1.776 5.038c-.347 2.823-.472 5.429-.582 7.728-.247 5.168-.426 8.902-3.052 11.189-.821.715-2.191 1.518-4.195 1.518zm-52.618-7.875.002-.001zm6.598-2.883c16.302 1.918 30.737 2.798 44.881 2.746.211-1.212.311-3.312.396-5.078.083-1.732.174-3.628.357-5.699-4.034.578-8.126 1.051-12.106 1.512-11.386 1.316-23.091 2.671-33.528 6.519zm-91.608 401.893c.64-12.694 11.471-17.362 17.654-27.296.469-.753 1.37-1.146 2.215-.876 2.951.944 5.735 2.991 8.726 4.545 1.255.652 1.469 2.353.394 3.27l-25.722 21.947c-1.314 1.121-3.354.135-3.267-1.59z"/><path d="M273.303 476.318c-.9 0-1.807-.203-2.65-.618a5.958 5.958 0 0 1-3.327-5.647c.49-9.729 5.92-15.342 11.17-20.77 2.64-2.729 5.133-5.306 7.083-8.439 1.454-2.334 4.261-3.393 6.829-2.572 2.38.761 4.504 2.013 6.559 3.223.965.568 1.876 1.105 2.794 1.583a5.998 5.998 0 0 1 3.202 4.649 5.956 5.956 0 0 1-2.058 5.214l-25.722 21.946a5.965 5.965 0 0 1-3.88 1.431zm18.144-29.835c-2.202 3.196-4.738 5.817-7.2 8.363-3.319 3.431-6.156 6.364-7.703 10.072l18.961-16.178-.598-.352c-1.203-.709-2.359-1.39-3.46-1.905zm-98.48 311.838-.268-8.848c-.06-1.989 2.532-2.805 3.625-1.142 4.561 6.934 5.858 4.138.158 11.17-1.154 1.423-3.46.651-3.515-1.18z"/><path d="M194.969 764.241a6.069 6.069 0 0 1-1.94-.321 5.921 5.921 0 0 1-4.061-5.478l-.268-8.848a5.92 5.92 0 0 1 4.171-5.875 5.926 5.926 0 0 1 6.795 2.414c.972 1.479 1.768 2.449 2.407 3.229 3.786 4.618 2.212 6.955-1.142 11.021-.394.478-.841 1.019-1.342 1.638a5.93 5.93 0 0 1-4.62 2.22zm1.996-6.045v.003-.003zm86.401-316.897-7.235 7.163c-1.457 1.443-3.913-.024-3.287-1.976 1.444-4.503 5.661-8.846 9.358-8.562 1.655.127 2.344 2.208 1.164 3.375z"/><path d="M274.741 453.037a6.002 6.002 0 0 1-3.145-.891 5.934 5.934 0 0 1-2.561-6.881c1.902-5.93 7.46-11.786 13.472-11.329 2.323.178 4.269 1.657 5.077 3.859a6.025 6.025 0 0 1-1.405 6.346l-7.234 7.163a5.96 5.96 0 0 1-4.204 1.733zm5.811-14.581-.003.003z"/></g><path d="M644.017 340.6c-1.528 17.917-6.242 36.483-15.207 52.321-18.842 29.821-35.734 53.523-50.85 64.439 7.174 69.377-34.336 116.32-90.663 143.064-63.096 26.415-144.479 14.24-198.974-13.662 7.104 56.376 5.775 76.265 4.879 111.895-1.632 48.239-10.196 51.561-9.736 60.865 7.174 28.137-4.533 44.418-24.816 56.588-34.025 23.987-52.367 31.781-71.461 42.16-4.533 1.108-.906 6.033-1.12 9.401.502 11.436-.226 24.058-7.691 33.552-3.847 3.712-7.052 7.57-11.779 9.767-16.596 5.457-34.225 6.255-51.672 7.603-41.884 2.224-87.269 2.952-96.633.506-13.608-1.102-20.88-5.801-17.448-19.661 3.747-17.907 53.37-27.278 64.95-35.104 24.172-9.607 29.399-17.183 41.334-31.273-18.185-12.606-15.801-21.305-17.104-38.79-.269-26.034-1.336-52.076.802-78.076 3.572-47.788 13.254-95.752 36.849-138.064 13.593-26.405 23.617-46.889 45.866-62.079 1.323-1.91.842-3.638 1.164-6.087 3.857-32.686 12.697-23.134-2.696-30.535-18.792-8.016-15.753-9.551-18.401-3.684-6.224 11.961-24 12.306-34.135 8.735-27.977-8.404-50.229-53.087-43.159-76.515 5.421-12.246 9.935-1.749 14.701-16.21-.296-6.07-.325-13.341-.123-19.717 2.764-88.711-15.02-80.419 30.417-63.395 95.471 36.091 149.057 69.263 149.933 56.288 24.087-43.26 43.376-83.958 62.99-111.037 25.501-29.629 58.618-52.183 96.189-63.137 12.785-4.602 17.772-3.439 16.802-6.201-1.123-11.336.249-19.653-4.819-23.834-7.698-6.04-21.87-3.131-25.385-12.317-6-14.047-2.396-22.263-5.048-30.324-1.109-2.219-2.401-3.139-4.86-4.259-18.884-8.298-1.942-21.054 4.665-30.361-31.014-.934-57.954-3.824-61.393-5.992-31.549-23.521 53.99-29.876 64.655-31.146 2.135.08 1.832-2.261 2.843-3.905C428.054 16.372 448.717 1.605 474.38.537c22.612-3.424 49.858 9.841 57.491 31.574 1.553 6.791-.858 13.926 1.237 20.373 11.46 23.103 35.246 39.012 43.055 64.089 11.568 51.216-56.956 48.626-59.852 44.238-3.414-2.557 1.144 15.347.625 16.316.092 2.087 4.111.636 5.701 1.252 42.157 5.782 79.068 38.63 99.897 72.146 18.568 33.378 18.489 61.866 21.483 90.075zm-74.913-54.865c2.448 3.071 2.598 5.389 1.799 8.706-7.442 58.915-56.506 110.221-108.127 116.696-58.485 7.211-86.94-8.168-114.561-14.377-10.956-2.224-14.979 6.132-18.743 14.029-2.882 5.909-6.618 11.022-7.305 17.686-1.933 6.897-.984 15.175 4.724 20.117 14.39 10.011 28.559 19.433 45.121 25.065 14.447 6.855 29.52 12.392 45.298 14.628 35.966 2.444 63.754-.431 92.834-5.545 24.481-6.12 53.654-19.566 64.93-28.614 12.119-16.379 25.988-31.212 36.377-48.783 13.549-20.25 21.327-47.662 20.746-62.703-2.106-28.083-6.741-56.185-19.127-81.818-9.98-22.3-26.687-35.569-42.529-51.368-17.074-15.174-49.095-27.614-55.652-25.85 1.98 6.21-11.162 8.669-14.17 10.371-8.258 3.325-17.312 4.307-26.142 3.728-8.282.116-14.914-4.079-23.517-4.056-1.831.039-3.058-1.86-5.092-1.501-16.933 5.26-33.431 11.68-49.412 19.966-57.392 33.407-66.8 65.934-76.85 81.941-46.745 87.674-42.711 82.355-47.978 81.449-.624 3.207-.122 8.909.908 11.282 15.493-16.377 18.604-12.696 35.962-9.086 34.038 7.57 30.535 11.177 33.188 6.516 7.423-11.709 13.53-23.103 21.404-33.871 1.147-1.302 1.366-1.784 1.053-3.85-.582-10.127-2.028-19.222-1.724-29.266-.044-9.705 9.365-80.444 16.544-68.509.669 8.948-4.216 19.436-4.489 29.011-4.642 42.998-2.667 81.732 18.576 116.568 3.201 6.946 29.259 5.129 31.846 5.809 46.729 2.29 80.024-11.385 107.967-44.742 29.922-33.486 30.809-59.901 36.141-69.629zm-304.023 86.728c-18.971-4.765-36.763-12.712-54.876-20.243-38.442-15.164-75.687-31.043-114.187-45.937-.933 15.015 3.614 30.189 2.945 45.347.41 13.123-.257 25.833-.033 39.102 4.472 3.416 7.483 2.526 8.301 9.582 15.876-10.059 13.367 15.646 15.381 24.484 1.298 11.027 6.464 26.589 12.27 30.672 42.727 19.224 85.917 36.201 128.761 54.961-.119-46.052 2.593-91.943 1.438-137.968zM422.173 54.794c-2.334 9.975-3.076 20.175-4.609 30.318-2.295 9.085-14.341 16.299-9.385 24.276 2.756 4.058 8.281 4.407 11.837 7.738 2.856 2.385 2.8 5.811 3.079 9.473.749 8.78.098 18.13 5.762 25.225 6.901 4.84 17.155 3.096 23.757 8.974 9.152 7.613-.897 32.216 8.332 30.837 20.579 2.604 27.028-1.392 39.51-5.074 3.136-1.435 8.242-2.437 9.023-4.996-.202-8.633-.979-17.254-1.715-25.838-1.762-12.089-.048-25.011-3.258-35.94 9.711-6.54 12.297-19.697-1.462-20.063-4.198-.352-6.943 3.989-11.033 3.402-25.618-7.644-32.792-17.088-44.469-33.367-11.793-22.835-.318-15.728-25.369-14.965zM203.268 755.858c-22.12 36.983-51.708 67.04-73.436 102.306-1.595 3.677 1.339 6.825 3.104 10.148 2.229 4.338 4.644 7.059 8.905 6.054 13.05-5.587 24.732-11.418 36.317-18.72 93.576-51.011 101.306-60.501 98.47-90.618-11.212 6.54-24.512 4.636-37.014 5.143-17.427.659-26.521-1.106-36.346-14.313zm-21.377 105.206c-7.847 5.219-15.597 9.578-24.526 12.915-6.069 3.847-10.891 5.389-17.532 3.3-9.511-2.344-14.408-10.278-17.169-19.278.452-6.84 5.591-11.335 9.543-16.938-7.346-2.289-15.304-2.549-21.594-6.647-8.66 10.298-15.305 21.644-26.795 28.65-42.623 25.771-76.375 23.869-78.292 48.648 11.188 2.062 22.097 3.364 33.61 2.479 20.839.32 41.247-.383 62.033-2.233 46.503-4.243 83.392 1.102 80.722-50.896zM522.785 41.36c1.37-9.37-2.564-18.505-8.89-25.638-13.658-17.277-43.158-11.307-57.422-5.153-14.283 7.037-24.174 20.053-30.47 34.455l96.782-3.664zM87.084 402.194c-10.07 5-6.857 17.502-5.314 26.458 4.391 24.142 26.324 51.192 50.052 51.753 13.472 1.096 26.891-7.913 20.304-9.954-5.568-2.569-10.473-4.988-16.298-6.538-24.754-19.874-18.087-48.797-23.251-64.334-9.518 8.999-5.966 28.126-5.007 36.915.504 5.91 5.302 11.996 3.372 13.594-6.801 8.023-9.851-20.171-9.998-22.823-1.22-11.041 2.183-32.705-3.162-33.738-4.673-.534-5.181 17.857-4.826 19.366-.157 21.253 7.876 32.906 6.871 39.214-4.322 4.779-9.442-17.622-10.437-19.728-2.674-10.083-2.518-19.664-2.306-30.185zm247.78 64.245c-12.627-10.466-25.669-15.3-23.753-32.537-8.232-4.499-19.401-5.208-27.57.84 18.404 7.736 33.356 11.889 20.777 21.096-10.93 9.539-22.573 18.185-32.505 28.657-1.025 8.747-1.198 17.331-.445 26.027 21.288-14.781 42.311-29.376 63.496-44.083zm-61.518-68.654c7.709-11.389 18.334-11.949 29.385-10.948 3.465.886 13.069-1.148 10.384 4.394-22.059 8.4-28.401-2.156-38.838 22.749 5.1-3.176 9.192-9.375 15.832-10.455 4.178-.37 19.956 1.65 16.627 6.25-4.649 2.254-10.935-.509-15.898 1.948-9.034 3.481-24.168 29.383-15.377 21.022 23.423-20.62 35.97 3.545 37.616-7.173 11.861-31.651 19.417-25.597 22.908-33.58-17.877-5.383-41.464-11.027-47.754-8.992-6.253 2.248-14.292 10.134-14.885 14.785zM349.427 70.64c19.658 2.826 39.312 4.541 59.509 4.416 3.378-.106 2.253-1.492 2.718-4.072l1.536-15.432c-24.301 3.221-53.096 5.977-63.763 15.088zm17.717 288.088c-2.869 3.352-15.071 26.152-15.532 29.051 9.826-.19 18.522 4.189 28.489 5.903m-108.63 80.822 31.229-26.645c-5.095-1.359-12.512-9.137-14.166-4.388-17.138 22.425-16.709 13.807-17.063 31.033zm-79.022 266.711.684 22.577m92.088-324.329c-1.723-.314-4.045-3.54-5.608-1.408-4.176 4.079-8.92 7.717-6.901 13.794l12.509-12.386z"/></svg></g></svg>